<?xml version="1.0" encoding="utf-8"?>
<?xml-stylesheet type="text/xsl" href="rss1.xsl"?>
<rss version="2.0" xmlns:atom="http://www.w3.org/2005/Atom" xmlns:content="http://purl.org/rss/1.0/modules/content/" xmlns:dc="http://purl.org/dc/elements/1.1/" xmlns:media="http://search.yahoo.com/mrss/">
<channel>
 <title>Getty</title>
 <link>http://www.gettyimg.com/</link>
 <atom:link href="http://www.gettyimg.com/" rel="self" type="application/rss+xml" />

 
                <item>
                <title><![CDATA[【Music Videos】Madonna - Fever (UK Montage) (1993) VH1 Music First (VHS-Rip)]]></title>
                <link><![CDATA[https://sharemania.us/threads/madonna-fever-uk-montage-1993-vh1-music-first-vhs-rip.222124/]]></link>
                <description><![CDATA[<article>
<blockquote class="messageText SelectQuoteContainer ugc baseHtml">
<div style="text-align: center"><img src="https://i.discogs.com/b6ESPd_H76yRI1eMeWd2pOlDZ6VMfBLSf3jeuLOZ31Y/rs:fit/g:sm/q:90/h:600/w:597/czM6Ly9kaXNjb2dz/LWRhdGFiYXNlLWlt/YWdlcy9SLTE4NTI4/OTAtMTU1OTk3ODIw/OC00NjQ4LmpwZWc.jpeg" class="bbCodeImage LbImage" alt="[​IMG]" data-url="https://i.discogs.com/b6ESPd_H76yRI1eMeWd2pOlDZ6VMfBLSf3jeuLOZ31Y/rs:fit/g:sm/q:90/h:600/w:597/czM6Ly9kaXNjb2dz/LWRhdGFiYXNlLWlt/YWdlcy9SLTE4NTI4/OTAtMTU1OTk3ODIw/OC00NjQ4LmpwZWc.jpeg" style=""> <br>
<img src="https://i.postimg.cc/QdZ8HpBJ/Madonna-Fever-UK-Montage-1993-VH1-Music-First-VHS-Rip-m4v-thumbs.jpg" class="bbCodeImage LbImage" alt="[​IMG]" data-url="https://i.postimg.cc/QdZ8HpBJ/Madonna-Fever-UK-Montage-1993-VH1-Music-First-VHS-Rip-m4v-thumbs.jpg" style=""> <br>
<img src="https://i.postimg.cc/kXvJtxcv/SHAREMANIA-DRIVE-FORUM-LINK.jpg" class="bbCodeImage LbImage" alt="[​IMG]" data-url="https://i.postimg.cc/kXvJtxcv/SHAREMANIA-DRIVE-FORUM-LINK.jpg" style=""><br>
<div data-s9e-mediaembed="googledrive" style="display:inline-block;width:100%;max-width:640px"><div style="overflow:hidden;position:relative;padding-bottom:75%"><iframe allowfullscreen="" scrolling="no" src="//drive.google.com/file/d/1Mj2SgicUjrCq8-ebMtxCUIf0fbcVkN9O/preview" style="border:0;height:100%;left:0;position:absolute;width:100%"></iframe></div></div></div>
<div class="messageTextEndMarker">&nbsp;</div>
</blockquote>
</article>]]></description>
                <author><![CDATA[Fan Made]]></author>
                </item>

                
                <item>
                <title><![CDATA[【UPSCALED】Bachelors Of Science - On the Line (feat. Collette Warren &amp; Ben Soundscape) [4K AI Upscale HEVC 10-bit / PCM]]]></title>
                <link><![CDATA[https://sharemania.us/threads/bachelors-of-science-on-the-line-feat-collette-warren-ben-soundscape-4k-ai-upscale-hevc-10-bit-pcm.222125/]]></link>
                <description><![CDATA[<article>
<blockquote class="messageText SelectQuoteContainer ugc baseHtml">
<b><img src="https://images2.imgbox.com/5c/bd/Qv79Pmx4_o.jpg" class="bbCodeImage LbImage" alt="[​IMG]" data-url="https://images2.imgbox.com/5c/bd/Qv79Pmx4_o.jpg" style=""> <br>
<br>
Genre: <span style="color: rgb(0, 89, 179)">Electronic</span><br>
Style: <span style="color: rgb(0, 89, 179)">Drum n Bass</span><br>
Year: <span style="color: rgb(0, 89, 179)">2015</span><br>
Video Source: <span style="color: rgb(0, 89, 179)">Vimeo</span><br>
Audio Source: <span style="color: rgb(0, 89, 179)">Qobuz</span></b><br>
<br>
"<b>On the Line</b>" is a song by San Francisco based Drum &amp; Bass trio Bachelors of Science. It's the second track from their fifth album "The Space Between", released in 2015. ‘On The Line’ sees the trio joined by Intrigue Music's Ben Soundscape and and Collette Warren. The resulting collaboration is a rolling, moody number. Fast paced drums, warm bass, and carefully placed guitar licks set the stage for Warren, who delivers thoughtful lyrics with audible levels of melancholy.<br>
<br>
Bachelors of Science is the stage name of Phil "Rene" Collis, Chris Doe and Lukeino Argilla. They met in California and formed a successful act, quickly becoming one of the top drum and bass producers in the electronic music scene. Focusing primarily on the subgenre of liquid funk, Bachelors of Science have released multiple albums and singles to critical acclaim, gaining airplay from DJs such as Brian Gee, Bailey, LTJ Bukem, Grooverider, Annie Mac, High Contrast, Doc Scott, Flight, Alix Perez, DJ Lee, Redeyes, Makoto, State of Mind, JuJu, BigBud and L Double.<br>
<br>
Their track, "Bachelors of Science – Strings Track (Apex Remix)" has been awarded "Best Drum &amp; Bass Track" at the 2009 beatport Music Awards.<br>
<br>
Having released music on labels like Spearhead, Dirtybird, Fokuz, Horizons and Intrigue, in 2012 they launched their record label CODE Recordings as an outlet for their music as well as standout productions from some of the top artists in the DnB scene.<br>
<br>
<b>Release Info</b><br>
The video track is upscaled to 4K with Topaz Video AI and encoded to HEVC 10-bit.<br>
The PCM track is lossless (Qobuz, CD Quality), synced with Adobe Audition.<br>
<br>
<div class="ToggleTriggerAnchor bbCodeSpoilerContainer">
<button type="button" class="button bbCodeSpoilerButton ToggleTrigger Tooltip JsOnly" data-target="> .SpoilerTarget"><span>Spoiler: <span class="SpoilerTitle">Media Info</span></span></button>
<div class="SpoilerTarget bbCodeSpoilerText">
<div class="bbCodeBlock bbCodeCode">
<div class="type">Code:</div>
<pre>General
Unique ID                      : 8301309151863155992492469755154572187 (0x63EC624086E3852C1AE719857FCA39B)
Complete name                  : Bachelors Of Science - On the Line (feat. Collette Warren &amp; Ben Soundscape).mkv
Format                         : Matroska
Format version                 : Version 4 / Version 2
File size                      : 1 019 MiB
Duration                       : 6 min 55 s
Overall bit rate               : 20.6 Mb/s
Frame rate                     : 24.000 FPS
Encoded date                   : 2023-06-05 21:27:55 UTC
Writing application            : mkvmerge v76.0 ('Celebration') 64-bit
Writing library                : libebml v1.4.4 + libmatroska v1.7.1

Video
ID                             : 1
Format                         : HEVC
Format/Info                    : High Efficiency Video Coding
Format profile                 : Main 10@L5@Main
Codec ID                       : V_MPEGH/ISO/HEVC
Duration                       : 6 min 54 s
Bit rate                       : 18.9 Mb/s
Width                          : 3 840 pixels
Height                         : 2 160 pixels
Display aspect ratio           : 16:9
Frame rate mode                : Constant
Frame rate                     : 24.000 FPS
Color space                    : YUV
Chroma subsampling             : 4:2:0
Bit depth                      : 10 bits
Bits/(Pixel*Frame)             : 0.095
Stream size                    : 933 MiB (92%)
Language                       : English
Default                        : Yes
Forced                         : No
Color range                    : Limited
Color primaries                : BT.709
Transfer characteristics       : BT.709
Matrix coefficients            : BT.709

Audio #1
ID                             : 2
Format                         : PCM
Format settings                : Little / Signed
Codec ID                       : A_PCM/INT/LIT
Duration                       : 6 min 54 s
Bit rate mode                  : Constant
Bit rate                       : 1 411.2 kb/s
Channel(s)                     : 2 channels
Sampling rate                  : 44.1 kHz
Frame rate                     : 25.000 FPS (1764 SPF)
Bit depth                      : 16 bits
Stream size                    : 69.8 MiB (7%)
Language                       : English
Default                        : Yes
Forced                         : No

Audio #2
ID                             : 3
Format                         : AAC LC
Format/Info                    : Advanced Audio Codec Low Complexity
Codec ID                       : A_AAC-2
Duration                       : 6 min 55 s
Bit rate                       : 317 kb/s
Channel(s)                     : 2 channels
Channel layout                 : L R
Sampling rate                  : 48.0 kHz
Frame rate                     : 46.875 FPS (1024 SPF)
Compression mode               : Lossy
Stream size                    : 15.7 MiB (2%)
Language                       : English
Default                        : No
Forced                         : No
</pre>
</div></div>
</div><br>
<div class="bbCodeBlock bbCodeVfcHH HiddenContent">
<div class="attribution type">Hidden Content:</div>
<blockquote>You must reply before you can see the hidden data contained here.</blockquote>
</div>
<div class="messageTextEndMarker">&nbsp;</div>
</blockquote>
</article>]]></description>
                <author><![CDATA[ADHDerby]]></author>
                </item>

                
                <item>
                <title><![CDATA[【UPSCALED】Bachelors Of Science - Before You Go (feat. Dylan Germick &amp; Audio Angel) [4K AI Upscale HEVC / PCM}]]></title>
                <link><![CDATA[https://sharemania.us/threads/bachelors-of-science-before-you-go-feat-dylan-germick-audio-angel-4k-ai-upscale-hevc-pcm.222123/]]></link>
                <description><![CDATA[<article>
<blockquote class="messageText SelectQuoteContainer ugc baseHtml">
<b><img src="https://images2.imgbox.com/54/d6/9L4446Q2_o.jpg" class="bbCodeImage LbImage" alt="[​IMG]" data-url="https://images2.imgbox.com/54/d6/9L4446Q2_o.jpg" style=""> <br>
<br>
Genre: <span style="color: #0059b3">Electronic</span><br>
Style: <span style="color: #0059b3">Drum n Bass</span><br>
Year: <span style="color: #0059b3">2015</span><br>
Video Source: <span style="color: #0059b3">Vimeo</span><br>
Audio Source: <span style="color: #0059b3">Qobuz</span></b><br>
<br>
"<b>Before You Go</b>" is a song by San Francisco based Drum &amp; Bass trio Bachelors of Science, featuring Dylan Germick &amp; Audio Angel. It's the first track from their fifth album "The Space Between", released in 2015. Wasting no time, ‘Before You Go’ sets the vibe with a cascade of crisp breaks underlying optimistic piano melodies. Lush bass tones and Germick’s soulful vocal stylings quickly take control, cutting through the mix and hanging together in perfect balance. It’s the kind of singular songwriting abilities drum &amp; bass fans have come to expect from the trio.<br>
<br>
Bachelors of Science is the stage name of Phil "Rene" Collis, Chris Doe and Lukeino Argilla. They met in California and formed a successful act, quickly becoming one of the top drum and bass producers in the electronic music scene. Focusing primarily on the subgenre of liquid funk, Bachelors of Science have released multiple albums and singles to critical acclaim, gaining airplay from DJs such as Brian Gee, Bailey, LTJ Bukem, Grooverider, Annie Mac, High Contrast, Doc Scott, Flight, Alix Perez, DJ Lee, Redeyes, Makoto, State of Mind, JuJu, BigBud and L Double.<br>
<br>
Their track, "Bachelors of Science – Strings Track (Apex Remix)" has been awarded "Best Drum &amp; Bass Track" at the 2009 beatport Music Awards.<br>
<br>
Having released music on labels like Spearhead, Dirtybird, Fokuz, Horizons and Intrigue, in 2012 they launched their record label CODE Recordings as an outlet for their music as well as standout productions from some of the top artists in the DnB scene.<br>
<br>
<b>Release Info</b><br>
The video track is upscaled to 4K with Topaz Video AI and encoded to HEVC 10-bit.<br>
The PCM track is lossless (Qobuz, CD Quality), synced with Adobe Audition.<br>
<br>
<div class="ToggleTriggerAnchor bbCodeSpoilerContainer">
<button type="button" class="button bbCodeSpoilerButton ToggleTrigger Tooltip JsOnly" data-target="> .SpoilerTarget"><span>Spoiler: <span class="SpoilerTitle">Media Info</span></span></button>
<div class="SpoilerTarget bbCodeSpoilerText">
<div class="bbCodeBlock bbCodeCode">
<div class="type">Code:</div>
<pre>General
Unique ID                      : 250054014854881857078085667802497507181 (0xBC1EA6C8337D0E600B11560D5FA55F6D)
Complete name                  : Bachelors Of Science - Before You Go (feat. Dylan Germick &amp; Audio Angel).mkv
Format                         : Matroska
Format version                 : Version 4 / Version 2
File size                      : 728 MiB
Duration                       : 5 min 23 s
Overall bit rate               : 18.9 Mb/s
Frame rate                     : 24.000 FPS
Encoded date                   : 2023-06-05 21:56:25 UTC
Writing application            : mkvmerge v76.0 ('Celebration') 64-bit
Writing library                : libebml v1.4.4 + libmatroska v1.7.1

Video
ID                             : 1
Format                         : HEVC
Format/Info                    : High Efficiency Video Coding
Format profile                 : Main 10@L5@Main
Codec ID                       : V_MPEGH/ISO/HEVC
Duration                       : 5 min 23 s
Bit rate                       : 17.3 Mb/s
Width                          : 3 840 pixels
Height                         : 2 160 pixels
Display aspect ratio           : 16:9
Frame rate mode                : Constant
Frame rate                     : 24.000 FPS
Color space                    : YUV
Chroma subsampling             : 4:2:0
Bit depth                      : 10 bits
Bits/(Pixel*Frame)             : 0.087
Stream size                    : 667 MiB (92%)
Language                       : English
Default                        : Yes
Forced                         : No
Color range                    : Limited
Color primaries                : BT.709
Transfer characteristics       : BT.709
Matrix coefficients            : BT.709

Audio #1
ID                             : 2
Format                         : PCM
Format settings                : Little / Signed
Codec ID                       : A_PCM/INT/LIT
Duration                       : 5 min 23 s
Bit rate mode                  : Constant
Bit rate                       : 1 411.2 kb/s
Channel(s)                     : 2 channels
Sampling rate                  : 44.1 kHz
Frame rate                     : 25.003 FPS (1764 SPF)
Bit depth                      : 16 bits
Delay relative to video        : -42 ms
Stream size                    : 54.4 MiB (7%)
Language                       : English
Default                        : Yes
Forced                         : No

Audio #2
ID                             : 3
Format                         : AAC LC
Format/Info                    : Advanced Audio Codec Low Complexity
Codec ID                       : A_AAC-2
Duration                       : 5 min 23 s
Bit rate                       : 160 kb/s
Channel(s)                     : 2 channels
Channel layout                 : L R
Sampling rate                  : 48.0 kHz
Frame rate                     : 46.875 FPS (1024 SPF)
Compression mode               : Lossy
Delay relative to video        : -42 ms
Stream size                    : 6.16 MiB (1%)
Language                       : English
Default                        : No
Forced                         : No
</pre>
</div></div>
</div><br>
<div class="bbCodeBlock bbCodeVfcHH HiddenContent">
<div class="attribution type">Hidden Content:</div>
<blockquote>You must reply before you can see the hidden data contained here.</blockquote>
</div>
<div class="messageTextEndMarker">&nbsp;</div>
</blockquote>
</article>]]></description>
                <author><![CDATA[ADHDerby]]></author>
                </item>

                
                <item>
                <title><![CDATA[【Cinema Center】SERIES - Legion.of.Super.Heroes.S02.1080p.HMAX.WEB-DL.DD2.0.x264-Samuel]]></title>
                <link><![CDATA[https://sharemania.us/threads/legion-of-super-heroes-s02-1080p-hmax-web-dl-dd2-0-x264-samuel.222127/]]></link>
                <description><![CDATA[<article>
<blockquote class="messageText SelectQuoteContainer ugc baseHtml">
<div style="text-align: center"><b><span style="font-size: 26px">Legion of Super Heroes</span><br>
<span style="font-size: 22px">Season 2</span></b><br>
<a href="https://i.imgur.com/8TqEsAj.jpg" target="_blank" class="externalLink" rel="nofollow"><img src="https://i.imgur.com/TFf7DXP.jpg" class="bbCodeImage LbImage" alt="[​IMG]" data-url="https://i.imgur.com/TFf7DXP.jpg"></a><br>
<br>
21 MIN / 22 MIN • AL • 2007-2008 • HD<br>
<br>
<div class="bbCodeBlock bbCodeQuote">
<aside>
<blockquote class="quoteContainer"><div class="quote"><b><span style="font-size: 15px"><span style="font-family: 'Arial'">Description</span></span></b><br>
'Legion of Super Heroes' is an animated series starring a young Superman that combines humor with high-stakes, grand-scale super heroics to create the ultimate sci-fi, super hero, wish-fulfillment fantasy for kids of all ages.</div><div class="quoteExpand">Click to expand...</div></blockquote>
</aside>
</div>
<div class="bbCodeBlock bbCodeQuote">
<aside>
<blockquote class="quoteContainer"><div class="quote"><span style="font-family: 'Arial'"><span style="font-size: 15px"><b>Trailers &amp; Clips</b></span></span><br>
<div data-s9e-mediaembed="youtube" style="display:inline-block;width:100%;max-width:640px"><div style="overflow:hidden;position:relative;padding-bottom:56.25%"><iframe allowfullscreen="" scrolling="no" style="background:url(https://i.ytimg.com/vi/xje6DuwAJqI/hqdefault.jpg) 50% 50% / cover;border:0;height:100%;left:0;position:absolute;width:100%" src="https://www.youtube.com/embed/xje6DuwAJqI"></iframe></div></div><br>
<span style="font-size: 12px">Opening</span><br>
<br>
<div data-s9e-mediaembed="youtube" style="display:inline-block;width:100%;max-width:640px"><div style="overflow:hidden;position:relative;padding-bottom:56.25%"><iframe allowfullscreen="" scrolling="no" style="background:url(https://i.ytimg.com/vi/RmdpwujXr5A/hqdefault.jpg) 50% 50% / cover;border:0;height:100%;left:0;position:absolute;width:100%" src="https://www.youtube.com/embed/RmdpwujXr5A"></iframe></div></div><br>
<span style="font-size: 12px">The Complete Series</span></div><div class="quoteExpand quoteCut">Click to expand...</div></blockquote>
</aside>
</div>
<div class="bbCodeBlock bbCodeQuote">
<aside>
<blockquote class="quoteContainer"><div class="quote"><span style="font-family: 'Arial'"><span style="font-size: 15px"><b>Accessibility</b></span></span><br>
<b>Audio languages:</b> English (United States), Spanish (Latin American), Portuguese (Brazilian)<br>
<b>Subtitles:</b> English US (SDH)</div><div class="quoteExpand">Click to expand...</div></blockquote>
</aside>
</div>
<div class="bbCodeBlock bbCodeQuote">
<aside>
<blockquote class="quoteContainer"><div class="quote"><span style="font-family: 'Arial'"><span style="font-size: 15px"><b>More Information</b></span></span><br>
<b><i><span style="text-decoration: underline">Genres</span></i></b><br>
Animation, Kids, Teen<br>
<br>
<b><i><span style="text-decoration: underline">Runtime</span></i></b><br>
21 min / 22 min<br>
<br>
<b><i><span style="text-decoration: underline">About This Series</span></i></b><br>
One thousand years from now, Superman, the legendary Man of Steel, will inspire a group of emerging superheroes of the 31st Century to unite to defend the rights of all free worlds and uphold the laws of the United Planets. That is, if they don't kill each other first. 'Legion of Super-Heroes' is an animated series featuring a young Superman that combines humor with high heroism and high stakes to create the ultimate sci-fi, superhero, wish-fulfillment fantasy for kids of all ages. In each episode, Superman and the Legion face threats and adversaries from other worlds who challenge the team as superheroes and emotionally, immersing audiences in both the interpersonal dramas of the characters and the intergalactic challenges.<br>
<br>
<b><i><span style="text-decoration: underline">Cast &amp; Crew</span></i></b><br>
Superman • Yuri Lowenthal<br>
Lightning Lad • Andy Milder<br>
Timber Wolf • Shawn Harrison<br>
Brainiac 5 • Adam Wylie<br>
Phantom Girl • Heather Hogan<br>
Saturn Girl • Kari Whalgren<br>
Bouncing Boy • Michael Cornacchia<br>
<br>
<b><i><span style="text-decoration: underline">Producers</span></i></b><br>
Executive Producer • Sander Schwartz<br>
Producer • James Tucker<br>
Producer • Linda M. Steiner<br>
<br>
<b><i><span style="text-decoration: underline">Directors</span></i></b><br>
Director • Brandon Vietti<br>
Director • Scott Jeralds<br>
Director • James Tucker<br>
<br>
<b><i><span style="text-decoration: underline">Writers</span></i></b><br>
Writer • Michael Jelenic<br>
Writer • Greg Weisman<br>
Writer • J.M. DeMatteis<br>
Writer • Matt Wayne<br>
Writer • Eddie Guzelian<br>
Writer • Keith Damron<br>
Writer • Joseph Kuhr<br>
Writer • Steven Melching<br>
Writer • Stan Berkowitz<br>
<br>
<b><i><span style="text-decoration: underline">Rating Information</span></i></b><br>
AL</div><div class="quoteExpand quoteCut">Click to expand...</div></blockquote>
</aside>
</div>
<div class="bbCodeBlock bbCodeQuote">
<aside>
<blockquote class="quoteContainer"><div class="quote"><b><span style="font-size: 15px"><span style="font-family: 'Arial'">Source</span></span></b><br>
<img src="https://i.imgur.com/kP0bkE8.png" class="bbCodeImage LbImage" alt="[​IMG]" data-url="https://i.imgur.com/kP0bkE8.png" style=""></div><div class="quoteExpand">Click to expand...</div></blockquote>
</aside>
</div>
<div class="bbCodeBlock bbCodeQuote">
<aside>
<blockquote class="quoteContainer"><div class="quote"><b><span style="font-size: 15px">Release Name</span></b><br>
Legion.of.Super.Heroes.S02.1080p.HMAX.WEB-DL.DD2.0.x264-Samuel</div><div class="quoteExpand">Click to expand...</div></blockquote>
</aside>
</div>
<div class="ToggleTriggerAnchor bbCodeSpoilerContainer">
<button type="button" class="button bbCodeSpoilerButton ToggleTrigger Tooltip JsOnly" data-target="> .SpoilerTarget"><span>Spoiler: <span class="SpoilerTitle">Media Information</span></span></button>
<div class="SpoilerTarget bbCodeSpoilerText"><b><span style="text-decoration: underline">Episode 1: The Man From The Edge Of Tomorrow - Part I</span></b><br>
General<br>
Complete name : Legion.of.Super.Heroes.S02E01.The.Man.From.the.Edge.of.Tomorrow.Part.I.1080p.HMAX.WEB-DL.DD2.0.x264-Samuel.mkv<br>
Format : Matroska<br>
Format version : Version 4<br>
File size : 1.40 GiB<br>
Duration : 21 min 24 s<br>
Overall bit rate mode : Variable<br>
Overall bit rate : 9 342 kb/s<br>
Frame rate : 23.976 FPS<br>
Encoded date : 2023-05-14 07:33:38 UTC<br>
Writing application : mkvmerge v72.0.0 ('Minuano (Six-eight)') 64-bit<br>
Writing library : libebml v1.4.4 + libmatroska v1.7.1<br>
<br>
Video<br>
ID : 1<br>
Format : AVC<br>
Format/Info : Advanced Video Codec<br>
Format profile : High@L4<br>
Format settings : CABAC / 4 Ref Frames<br>
Format settings, CABAC : Yes<br>
Format settings, Reference frames : 4 frames<br>
Codec ID : V_MPEG4/ISO/AVC<br>
Duration : 21 min 24 s<br>
Bit rate mode : Variable<br>
Bit rate : 8 250 kb/s<br>
Maximum bit rate : 12.4 Mb/s<br>
Width : 1 920 pixels<br>
Height : 1 080 pixels<br>
Display aspect ratio : 16:9<br>
Frame rate mode : Constant<br>
Frame rate : 23.976 (24000/1001) FPS<br>
Color space : YUV<br>
Chroma subsampling : 4:2:0<br>
Bit depth : 8 bits<br>
Scan type : Progressive<br>
Bits/(Pixel*Frame) : 0.166<br>
Stream size : 1.22 GiB (88%)<br>
Writing library : x264 core 157 r2965 861cec4<br>
Encoding settings : cabac=1 / ref=4 / deblock=1:0:0 / analyse=0x3:0x113 / me=hex / subme=7 / psy=1 / psy_rd=1.00:0.00 / mixed_ref=1 / me_range=16 / chroma_me=1 / trellis=1 / 8x8dct=1 / cqm=0 / deadzone=21,11 / fast_pskip=1 / chroma_qp_offset=-2 / threads=34 / lookahead_threads=5 / sliced_threads=0 / nr=0 / decimate=1 / interlaced=0 / bluray_compat=0 / constrained_intra=0 / bframes=3 / b_pyramid=2 / b_adapt=1 / b_bias=0 / direct=1 / weightb=1 / open_gop=0 / weightp=2 / keyint=96 / keyint_min=96 / scenecut=40 / intra_refresh=0 / rc_lookahead=40 / rc=2pass / mbtree=1 / bitrate=8250 / ratetol=1.0 / qcomp=0.60 / qpmin=0 / qpmax=69 / qpstep=4 / cplxblur=20.0 / qblur=0.5 / vbv_maxrate=12375 / vbv_bufsize=6187 / nal_hrd=vbr / filler=0 / ip_ratio=1.40 / aq=1:1.00<br>
Default : Yes<br>
Forced : No<br>
Color range : Limited<br>
Color primaries : BT.709<br>
Transfer characteristics : BT.709<br>
Matrix coefficients : BT.709<br>
<br>
Audio #1<br>
ID : 2<br>
Format : AC-3<br>
Format/Info : Audio Coding 3<br>
Commercial name : Dolby Digital<br>
Codec ID : A_AC3<br>
Duration : 21 min 24 s<br>
Bit rate mode : Constant<br>
Bit rate : 384 kb/s<br>
Channel(s) : 2 channels<br>
Channel layout : L R<br>
Sampling rate : 48.0 kHz<br>
Frame rate : 31.250 FPS (1536 SPF)<br>
Compression mode : Lossy<br>
Stream size : 58.8 MiB (4%)<br>
Language : English<br>
Service kind : Complete Main<br>
Default : Yes<br>
Forced : No<br>
<br>
Audio #2<br>
ID : 3<br>
Format : AC-3<br>
Format/Info : Audio Coding 3<br>
Commercial name : Dolby Digital<br>
Codec ID : A_AC3<br>
Duration : 21 min 24 s<br>
Bit rate mode : Constant<br>
Bit rate : 384 kb/s<br>
Channel(s) : 2 channels<br>
Channel layout : L R<br>
Sampling rate : 48.0 kHz<br>
Frame rate : 31.250 FPS (1536 SPF)<br>
Compression mode : Lossy<br>
Stream size : 58.8 MiB (4%)<br>
Title : Latin American<br>
Language : Spanish<br>
Service kind : Complete Main<br>
Default : No<br>
Forced : No<br>
<br>
Audio #3<br>
ID : 4<br>
Format : AC-3<br>
Format/Info : Audio Coding 3<br>
Commercial name : Dolby Digital<br>
Codec ID : A_AC3<br>
Duration : 21 min 24 s<br>
Bit rate mode : Constant<br>
Bit rate : 384 kb/s<br>
Channel(s) : 2 channels<br>
Channel layout : L R<br>
Sampling rate : 48.0 kHz<br>
Frame rate : 31.250 FPS (1536 SPF)<br>
Compression mode : Lossy<br>
Stream size : 58.8 MiB (4%)<br>
Title : Brazilian<br>
Language : Portuguese<br>
Service kind : Complete Main<br>
Default : No<br>
Forced : No<br>
<br>
Text<br>
ID : 5<br>
Format : UTF-8<br>
Codec ID : S_TEXT/UTF8<br>
Codec ID/Info : UTF-8 Plain Text<br>
Duration : 20 min 51 s<br>
Bit rate : 64 b/s<br>
Frame rate : 0.293 FPS<br>
Count of elements : 367<br>
Stream size : 9.90 KiB (0%)<br>
Title : SDH<br>
Language : English<br>
Default : No<br>
Forced : No<br>
<br>
<b><span style="text-decoration: underline">Episode 2: The Man From The Edge Of Tomorrow - Part II</span></b><br>
General<br>
Complete name : Legion.of.Super.Heroes.S02E02.The.Man.From.the.Edge.of.Tomorrow.Part.II.1080p.HMAX.WEB-DL.DD2.0.x264-Samuel.mkv<br>
Format : Matroska<br>
Format version : Version 4<br>
File size : 1.42 GiB<br>
Duration : 21 min 45 s<br>
Overall bit rate mode : Variable<br>
Overall bit rate : 9 309 kb/s<br>
Frame rate : 23.976 FPS<br>
Encoded date : 2023-05-14 07:36:49 UTC<br>
Writing application : mkvmerge v72.0.0 ('Minuano (Six-eight)') 64-bit<br>
Writing library : libebml v1.4.4 + libmatroska v1.7.1<br>
<br>
Video<br>
ID : 1<br>
Format : AVC<br>
Format/Info : Advanced Video Codec<br>
Format profile : High@L4<br>
Format settings : CABAC / 4 Ref Frames<br>
Format settings, CABAC : Yes<br>
Format settings, Reference frames : 4 frames<br>
Codec ID : V_MPEG4/ISO/AVC<br>
Duration : 21 min 45 s<br>
Bit rate mode : Variable<br>
Bit rate : 8 250 kb/s<br>
Maximum bit rate : 12.4 Mb/s<br>
Width : 1 920 pixels<br>
Height : 1 080 pixels<br>
Display aspect ratio : 16:9<br>
Frame rate mode : Constant<br>
Frame rate : 23.976 (24000/1001) FPS<br>
Color space : YUV<br>
Chroma subsampling : 4:2:0<br>
Bit depth : 8 bits<br>
Scan type : Progressive<br>
Bits/(Pixel*Frame) : 0.166<br>
Stream size : 1.24 GiB (88%)<br>
Writing library : x264 core 157 r2965 861cec4<br>
Encoding settings : cabac=1 / ref=4 / deblock=1:0:0 / analyse=0x3:0x113 / me=hex / subme=7 / psy=1 / psy_rd=1.00:0.00 / mixed_ref=1 / me_range=16 / chroma_me=1 / trellis=1 / 8x8dct=1 / cqm=0 / deadzone=21,11 / fast_pskip=1 / chroma_qp_offset=-2 / threads=34 / lookahead_threads=5 / sliced_threads=0 / nr=0 / decimate=1 / interlaced=0 / bluray_compat=0 / constrained_intra=0 / bframes=3 / b_pyramid=2 / b_adapt=1 / b_bias=0 / direct=1 / weightb=1 / open_gop=0 / weightp=2 / keyint=96 / keyint_min=96 / scenecut=40 / intra_refresh=0 / rc_lookahead=40 / rc=2pass / mbtree=1 / bitrate=8250 / ratetol=1.0 / qcomp=0.60 / qpmin=0 / qpmax=69 / qpstep=4 / cplxblur=20.0 / qblur=0.5 / vbv_maxrate=12375 / vbv_bufsize=6187 / nal_hrd=vbr / filler=0 / ip_ratio=1.40 / aq=1:1.00<br>
Default : Yes<br>
Forced : No<br>
Color range : Limited<br>
Color primaries : BT.709<br>
Transfer characteristics : BT.709<br>
Matrix coefficients : BT.709<br>
<br>
Audio #1<br>
ID : 2<br>
Format : AC-3<br>
Format/Info : Audio Coding 3<br>
Commercial name : Dolby Digital<br>
Codec ID : A_AC3<br>
Duration : 21 min 45 s<br>
Bit rate mode : Constant<br>
Bit rate : 384 kb/s<br>
Channel(s) : 2 channels<br>
Channel layout : L R<br>
Sampling rate : 48.0 kHz<br>
Frame rate : 31.250 FPS (1536 SPF)<br>
Compression mode : Lossy<br>
Stream size : 59.8 MiB (4%)<br>
Language : English<br>
Service kind : Complete Main<br>
Default : Yes<br>
Forced : No<br>
<br>
Audio #2<br>
ID : 3<br>
Format : AC-3<br>
Format/Info : Audio Coding 3<br>
Commercial name : Dolby Digital<br>
Codec ID : A_AC3<br>
Duration : 21 min 45 s<br>
Bit rate mode : Constant<br>
Bit rate : 384 kb/s<br>
Channel(s) : 2 channels<br>
Channel layout : L R<br>
Sampling rate : 48.0 kHz<br>
Frame rate : 31.250 FPS (1536 SPF)<br>
Compression mode : Lossy<br>
Stream size : 59.8 MiB (4%)<br>
Title : Latin American<br>
Language : Spanish<br>
Service kind : Complete Main<br>
Default : No<br>
Forced : No<br>
<br>
Audio #3<br>
ID : 4<br>
Format : AC-3<br>
Format/Info : Audio Coding 3<br>
Commercial name : Dolby Digital<br>
Codec ID : A_AC3<br>
Duration : 21 min 45 s<br>
Bit rate mode : Constant<br>
Bit rate : 384 kb/s<br>
Channel(s) : 2 channels<br>
Channel layout : L R<br>
Sampling rate : 48.0 kHz<br>
Frame rate : 31.250 FPS (1536 SPF)<br>
Compression mode : Lossy<br>
Stream size : 59.8 MiB (4%)<br>
Title : Brazilian<br>
Language : Portuguese<br>
Service kind : Complete Main<br>
Default : No<br>
Forced : No<br>
<br>
Text<br>
ID : 5<br>
Format : UTF-8<br>
Codec ID : S_TEXT/UTF8<br>
Codec ID/Info : UTF-8 Plain Text<br>
Duration : 21 min 13 s<br>
Bit rate : 66 b/s<br>
Frame rate : 0.297 FPS<br>
Count of elements : 378<br>
Stream size : 10.4 KiB (0%)<br>
Title : SDH<br>
Language : English<br>
Default : No<br>
Forced : No<br>
<br>
<b><span style="text-decoration: underline">Episode 3: Cry Wolf</span></b><br>
General<br>
Complete name : Legion.of.Super.Heroes.S02E03.Cry.Wolf.1080p.HMAX.WEB-DL.DD2.0.x264-Samuel.mkv<br>
Format : Matroska<br>
Format version : Version 4<br>
File size : 1.42 GiB<br>
Duration : 21 min 48 s<br>
Overall bit rate mode : Variable<br>
Overall bit rate : 9 337 kb/s<br>
Frame rate : 23.976 FPS<br>
Encoded date : 2023-05-14 07:38:53 UTC<br>
Writing application : mkvmerge v72.0.0 ('Minuano (Six-eight)') 64-bit<br>
Writing library : libebml v1.4.4 + libmatroska v1.7.1<br>
<br>
Video<br>
ID : 1<br>
Format : AVC<br>
Format/Info : Advanced Video Codec<br>
Format profile : High@L4<br>
Format settings : CABAC / 4 Ref Frames<br>
Format settings, CABAC : Yes<br>
Format settings, Reference frames : 4 frames<br>
Codec ID : V_MPEG4/ISO/AVC<br>
Duration : 21 min 48 s<br>
Bit rate mode : Variable<br>
Bit rate : 8 250 kb/s<br>
Maximum bit rate : 12.4 Mb/s<br>
Width : 1 920 pixels<br>
Height : 1 080 pixels<br>
Display aspect ratio : 16:9<br>
Frame rate mode : Constant<br>
Frame rate : 23.976 (24000/1001) FPS<br>
Color space : YUV<br>
Chroma subsampling : 4:2:0<br>
Bit depth : 8 bits<br>
Scan type : Progressive<br>
Bits/(Pixel*Frame) : 0.166<br>
Stream size : 1.25 GiB (88%)<br>
Writing library : x264 core 157 r2965 861cec4<br>
Encoding settings : cabac=1 / ref=4 / deblock=1:0:0 / analyse=0x3:0x113 / me=hex / subme=7 / psy=1 / psy_rd=1.00:0.00 / mixed_ref=1 / me_range=16 / chroma_me=1 / trellis=1 / 8x8dct=1 / cqm=0 / deadzone=21,11 / fast_pskip=1 / chroma_qp_offset=-2 / threads=34 / lookahead_threads=5 / sliced_threads=0 / nr=0 / decimate=1 / interlaced=0 / bluray_compat=0 / constrained_intra=0 / bframes=3 / b_pyramid=2 / b_adapt=1 / b_bias=0 / direct=1 / weightb=1 / open_gop=0 / weightp=2 / keyint=96 / keyint_min=96 / scenecut=40 / intra_refresh=0 / rc_lookahead=40 / rc=2pass / mbtree=1 / bitrate=8250 / ratetol=1.0 / qcomp=0.60 / qpmin=0 / qpmax=69 / qpstep=4 / cplxblur=20.0 / qblur=0.5 / vbv_maxrate=12375 / vbv_bufsize=6187 / nal_hrd=vbr / filler=0 / ip_ratio=1.40 / aq=1:1.00<br>
Default : Yes<br>
Forced : No<br>
Color range : Limited<br>
Color primaries : BT.709<br>
Transfer characteristics : BT.709<br>
Matrix coefficients : BT.709<br>
<br>
Audio #1<br>
ID : 2<br>
Format : AC-3<br>
Format/Info : Audio Coding 3<br>
Commercial name : Dolby Digital<br>
Codec ID : A_AC3<br>
Duration : 21 min 48 s<br>
Bit rate mode : Constant<br>
Bit rate : 384 kb/s<br>
Channel(s) : 2 channels<br>
Channel layout : L R<br>
Sampling rate : 48.0 kHz<br>
Frame rate : 31.250 FPS (1536 SPF)<br>
Compression mode : Lossy<br>
Stream size : 59.9 MiB (4%)<br>
Language : English<br>
Service kind : Complete Main<br>
Default : Yes<br>
Forced : No<br>
<br>
Audio #2<br>
ID : 3<br>
Format : AC-3<br>
Format/Info : Audio Coding 3<br>
Commercial name : Dolby Digital<br>
Codec ID : A_AC3<br>
Duration : 21 min 48 s<br>
Bit rate mode : Constant<br>
Bit rate : 384 kb/s<br>
Channel(s) : 2 channels<br>
Channel layout : L R<br>
Sampling rate : 48.0 kHz<br>
Frame rate : 31.250 FPS (1536 SPF)<br>
Compression mode : Lossy<br>
Stream size : 59.9 MiB (4%)<br>
Title : Latin American<br>
Language : Spanish<br>
Service kind : Complete Main<br>
Default : No<br>
Forced : No<br>
<br>
Audio #3<br>
ID : 4<br>
Format : AC-3<br>
Format/Info : Audio Coding 3<br>
Commercial name : Dolby Digital<br>
Codec ID : A_AC3<br>
Duration : 21 min 48 s<br>
Bit rate mode : Constant<br>
Bit rate : 384 kb/s<br>
Channel(s) : 2 channels<br>
Channel layout : L R<br>
Sampling rate : 48.0 kHz<br>
Frame rate : 31.250 FPS (1536 SPF)<br>
Compression mode : Lossy<br>
Stream size : 59.9 MiB (4%)<br>
Title : Brazilian<br>
Language : Portuguese<br>
Service kind : Complete Main<br>
Default : No<br>
Forced : No<br>
<br>
Text<br>
ID : 5<br>
Format : UTF-8<br>
Codec ID : S_TEXT/UTF8<br>
Codec ID/Info : UTF-8 Plain Text<br>
Duration : 21 min 14 s<br>
Bit rate : 71 b/s<br>
Frame rate : 0.319 FPS<br>
Count of elements : 406<br>
Stream size : 11.1 KiB (0%)<br>
Title : SDH<br>
Language : English<br>
Default : No<br>
Forced : No<br>
<br>
<b><span style="text-decoration: underline">Episode 4: Chained Lightning</span></b><br>
General<br>
Complete name : Legion.of.Super.Heroes.S02E04.Chained.Lightning.1080p.HMAX.WEB-DL.DD2.0.x264-Samuel.mkv<br>
Format : Matroska<br>
Format version : Version 4<br>
File size : 1.48 GiB<br>
Duration : 22 min 42 s<br>
Overall bit rate mode : Variable<br>
Overall bit rate : 9 349 kb/s<br>
Frame rate : 23.976 FPS<br>
Encoded date : 2023-05-14 07:41:15 UTC<br>
Writing application : mkvmerge v72.0.0 ('Minuano (Six-eight)') 64-bit<br>
Writing library : libebml v1.4.4 + libmatroska v1.7.1<br>
<br>
Video<br>
ID : 1<br>
Format : AVC<br>
Format/Info : Advanced Video Codec<br>
Format profile : High@L4<br>
Format settings : CABAC / 4 Ref Frames<br>
Format settings, CABAC : Yes<br>
Format settings, Reference frames : 4 frames<br>
Codec ID : V_MPEG4/ISO/AVC<br>
Duration : 22 min 42 s<br>
Bit rate mode : Variable<br>
Bit rate : 8 250 kb/s<br>
Maximum bit rate : 12.4 Mb/s<br>
Width : 1 920 pixels<br>
Height : 1 080 pixels<br>
Display aspect ratio : 16:9<br>
Frame rate mode : Constant<br>
Frame rate : 23.976 (24000/1001) FPS<br>
Color space : YUV<br>
Chroma subsampling : 4:2:0<br>
Bit depth : 8 bits<br>
Scan type : Progressive<br>
Bits/(Pixel*Frame) : 0.166<br>
Stream size : 1.30 GiB (88%)<br>
Writing library : x264 core 157 r2965 861cec4<br>
Encoding settings : cabac=1 / ref=4 / deblock=1:0:0 / analyse=0x3:0x113 / me=hex / subme=7 / psy=1 / psy_rd=1.00:0.00 / mixed_ref=1 / me_range=16 / chroma_me=1 / trellis=1 / 8x8dct=1 / cqm=0 / deadzone=21,11 / fast_pskip=1 / chroma_qp_offset=-2 / threads=34 / lookahead_threads=5 / sliced_threads=0 / nr=0 / decimate=1 / interlaced=0 / bluray_compat=0 / constrained_intra=0 / bframes=3 / b_pyramid=2 / b_adapt=1 / b_bias=0 / direct=1 / weightb=1 / open_gop=0 / weightp=2 / keyint=96 / keyint_min=96 / scenecut=40 / intra_refresh=0 / rc_lookahead=40 / rc=2pass / mbtree=1 / bitrate=8250 / ratetol=1.0 / qcomp=0.60 / qpmin=0 / qpmax=69 / qpstep=4 / cplxblur=20.0 / qblur=0.5 / vbv_maxrate=12375 / vbv_bufsize=6187 / nal_hrd=vbr / filler=0 / ip_ratio=1.40 / aq=1:1.00<br>
Default : Yes<br>
Forced : No<br>
Color range : Limited<br>
Color primaries : BT.709<br>
Transfer characteristics : BT.709<br>
Matrix coefficients : BT.709<br>
<br>
Audio #1<br>
ID : 2<br>
Format : AC-3<br>
Format/Info : Audio Coding 3<br>
Commercial name : Dolby Digital<br>
Codec ID : A_AC3<br>
Duration : 22 min 42 s<br>
Bit rate mode : Constant<br>
Bit rate : 384 kb/s<br>
Channel(s) : 2 channels<br>
Channel layout : L R<br>
Sampling rate : 48.0 kHz<br>
Frame rate : 31.250 FPS (1536 SPF)<br>
Compression mode : Lossy<br>
Stream size : 62.4 MiB (4%)<br>
Language : English<br>
Service kind : Complete Main<br>
Default : Yes<br>
Forced : No<br>
<br>
Audio #2<br>
ID : 3<br>
Format : AC-3<br>
Format/Info : Audio Coding 3<br>
Commercial name : Dolby Digital<br>
Codec ID : A_AC3<br>
Duration : 22 min 42 s<br>
Bit rate mode : Constant<br>
Bit rate : 384 kb/s<br>
Channel(s) : 2 channels<br>
Channel layout : L R<br>
Sampling rate : 48.0 kHz<br>
Frame rate : 31.250 FPS (1536 SPF)<br>
Compression mode : Lossy<br>
Stream size : 62.4 MiB (4%)<br>
Title : Latin American<br>
Language : Spanish<br>
Service kind : Complete Main<br>
Default : No<br>
Forced : No<br>
<br>
Audio #3<br>
ID : 4<br>
Format : AC-3<br>
Format/Info : Audio Coding 3<br>
Commercial name : Dolby Digital<br>
Codec ID : A_AC3<br>
Duration : 22 min 42 s<br>
Bit rate mode : Constant<br>
Bit rate : 384 kb/s<br>
Channel(s) : 2 channels<br>
Channel layout : L R<br>
Sampling rate : 48.0 kHz<br>
Frame rate : 31.250 FPS (1536 SPF)<br>
Compression mode : Lossy<br>
Stream size : 62.4 MiB (4%)<br>
Title : Brazilian<br>
Language : Portuguese<br>
Service kind : Complete Main<br>
Default : No<br>
Forced : No<br>
<br>
Text<br>
ID : 5<br>
Format : UTF-8<br>
Codec ID : S_TEXT/UTF8<br>
Codec ID/Info : UTF-8 Plain Text<br>
Duration : 22 min 10 s<br>
Bit rate : 67 b/s<br>
Frame rate : 0.309 FPS<br>
Count of elements : 411<br>
Stream size : 10.9 KiB (0%)<br>
Title : SDH<br>
Language : English<br>
Default : No<br>
Forced : No<br>
<br>
<b><span style="text-decoration: underline">Episode 5: The Karate Kid</span></b><br>
General<br>
Complete name : Legion.of.Super.Heroes.S02E05.The.Karate.Kid.1080p.HMAX.WEB-DL.DD2.0.x264-Samuel.mkv<br>
Format : Matroska<br>
Format version : Version 4<br>
File size : 1.43 GiB<br>
Duration : 21 min 53 s<br>
Overall bit rate mode : Variable<br>
Overall bit rate : 9 344 kb/s<br>
Frame rate : 23.976 FPS<br>
Encoded date : 2023-05-14 07:43:38 UTC<br>
Writing application : mkvmerge v72.0.0 ('Minuano (Six-eight)') 64-bit<br>
Writing library : libebml v1.4.4 + libmatroska v1.7.1<br>
<br>
Video<br>
ID : 1<br>
Format : AVC<br>
Format/Info : Advanced Video Codec<br>
Format profile : High@L4<br>
Format settings : CABAC / 4 Ref Frames<br>
Format settings, CABAC : Yes<br>
Format settings, Reference frames : 4 frames<br>
Codec ID : V_MPEG4/ISO/AVC<br>
Duration : 21 min 53 s<br>
Bit rate mode : Variable<br>
Bit rate : 8 250 kb/s<br>
Maximum bit rate : 12.4 Mb/s<br>
Width : 1 920 pixels<br>
Height : 1 080 pixels<br>
Display aspect ratio : 16:9<br>
Frame rate mode : Constant<br>
Frame rate : 23.976 (24000/1001) FPS<br>
Color space : YUV<br>
Chroma subsampling : 4:2:0<br>
Bit depth : 8 bits<br>
Scan type : Progressive<br>
Bits/(Pixel*Frame) : 0.166<br>
Stream size : 1.25 GiB (88%)<br>
Writing library : x264 core 157 r2965 861cec4<br>
Encoding settings : cabac=1 / ref=4 / deblock=1:0:0 / analyse=0x3:0x113 / me=hex / subme=7 / psy=1 / psy_rd=1.00:0.00 / mixed_ref=1 / me_range=16 / chroma_me=1 / trellis=1 / 8x8dct=1 / cqm=0 / deadzone=21,11 / fast_pskip=1 / chroma_qp_offset=-2 / threads=34 / lookahead_threads=5 / sliced_threads=0 / nr=0 / decimate=1 / interlaced=0 / bluray_compat=0 / constrained_intra=0 / bframes=3 / b_pyramid=2 / b_adapt=1 / b_bias=0 / direct=1 / weightb=1 / open_gop=0 / weightp=2 / keyint=96 / keyint_min=96 / scenecut=40 / intra_refresh=0 / rc_lookahead=40 / rc=2pass / mbtree=1 / bitrate=8250 / ratetol=1.0 / qcomp=0.60 / qpmin=0 / qpmax=69 / qpstep=4 / cplxblur=20.0 / qblur=0.5 / vbv_maxrate=12375 / vbv_bufsize=6187 / nal_hrd=vbr / filler=0 / ip_ratio=1.40 / aq=1:1.00<br>
Default : Yes<br>
Forced : No<br>
Color range : Limited<br>
Color primaries : BT.709<br>
Transfer characteristics : BT.709<br>
Matrix coefficients : BT.709<br>
<br>
Audio #1<br>
ID : 2<br>
Format : AC-3<br>
Format/Info : Audio Coding 3<br>
Commercial name : Dolby Digital<br>
Codec ID : A_AC3<br>
Duration : 21 min 53 s<br>
Bit rate mode : Constant<br>
Bit rate : 384 kb/s<br>
Channel(s) : 2 channels<br>
Channel layout : L R<br>
Sampling rate : 48.0 kHz<br>
Frame rate : 31.250 FPS (1536 SPF)<br>
Compression mode : Lossy<br>
Stream size : 60.1 MiB (4%)<br>
Language : English<br>
Service kind : Complete Main<br>
Default : Yes<br>
Forced : No<br>
<br>
Audio #2<br>
ID : 3<br>
Format : AC-3<br>
Format/Info : Audio Coding 3<br>
Commercial name : Dolby Digital<br>
Codec ID : A_AC3<br>
Duration : 21 min 53 s<br>
Bit rate mode : Constant<br>
Bit rate : 384 kb/s<br>
Channel(s) : 2 channels<br>
Channel layout : L R<br>
Sampling rate : 48.0 kHz<br>
Frame rate : 31.250 FPS (1536 SPF)<br>
Compression mode : Lossy<br>
Stream size : 60.1 MiB (4%)<br>
Title : Latin American<br>
Language : Spanish<br>
Service kind : Complete Main<br>
Default : No<br>
Forced : No<br>
<br>
Audio #3<br>
ID : 4<br>
Format : AC-3<br>
Format/Info : Audio Coding 3<br>
Commercial name : Dolby Digital<br>
Codec ID : A_AC3<br>
Duration : 21 min 53 s<br>
Bit rate mode : Constant<br>
Bit rate : 384 kb/s<br>
Channel(s) : 2 channels<br>
Channel layout : L R<br>
Sampling rate : 48.0 kHz<br>
Frame rate : 31.250 FPS (1536 SPF)<br>
Compression mode : Lossy<br>
Stream size : 60.1 MiB (4%)<br>
Title : Brazilian<br>
Language : Portuguese<br>
Service kind : Complete Main<br>
Default : No<br>
Forced : No<br>
<br>
Text<br>
ID : 5<br>
Format : UTF-8<br>
Codec ID : S_TEXT/UTF8<br>
Codec ID/Info : UTF-8 Plain Text<br>
Duration : 21 min 19 s<br>
Bit rate : 65 b/s<br>
Frame rate : 0.303 FPS<br>
Count of elements : 388<br>
Stream size : 10.2 KiB (0%)<br>
Title : SDH<br>
Language : English<br>
Default : No<br>
Forced : No<br>
<br>
<b><span style="text-decoration: underline">Episode 6: Who am I?</span></b><br>
General<br>
Complete name : Legion.of.Super.Heroes.S02E06.Who.Am.I.1080p.HMAX.WEB-DL.DD2.0.x264-Samuel.mkv<br>
Format : Matroska<br>
Format version : Version 4<br>
File size : 1.42 GiB<br>
Duration : 21 min 39 s<br>
Overall bit rate mode : Variable<br>
Overall bit rate : 9 363 kb/s<br>
Frame rate : 23.976 FPS<br>
Encoded date : 2023-05-14 07:45:56 UTC<br>
Writing application : mkvmerge v72.0.0 ('Minuano (Six-eight)') 64-bit<br>
Writing library : libebml v1.4.4 + libmatroska v1.7.1<br>
<br>
Video<br>
ID : 1<br>
Format : AVC<br>
Format/Info : Advanced Video Codec<br>
Format profile : High@L4<br>
Format settings : CABAC / 4 Ref Frames<br>
Format settings, CABAC : Yes<br>
Format settings, Reference frames : 4 frames<br>
Codec ID : V_MPEG4/ISO/AVC<br>
Duration : 21 min 39 s<br>
Bit rate mode : Variable<br>
Bit rate : 8 250 kb/s<br>
Maximum bit rate : 12.4 Mb/s<br>
Width : 1 920 pixels<br>
Height : 1 080 pixels<br>
Display aspect ratio : 16:9<br>
Frame rate mode : Constant<br>
Frame rate : 23.976 (24000/1001) FPS<br>
Color space : YUV<br>
Chroma subsampling : 4:2:0<br>
Bit depth : 8 bits<br>
Scan type : Progressive<br>
Bits/(Pixel*Frame) : 0.166<br>
Stream size : 1.24 GiB (88%)<br>
Writing library : x264 core 157 r2965 861cec4<br>
Encoding settings : cabac=1 / ref=4 / deblock=1:0:0 / analyse=0x3:0x113 / me=hex / subme=7 / psy=1 / psy_rd=1.00:0.00 / mixed_ref=1 / me_range=16 / chroma_me=1 / trellis=1 / 8x8dct=1 / cqm=0 / deadzone=21,11 / fast_pskip=1 / chroma_qp_offset=-2 / threads=34 / lookahead_threads=5 / sliced_threads=0 / nr=0 / decimate=1 / interlaced=0 / bluray_compat=0 / constrained_intra=0 / bframes=3 / b_pyramid=2 / b_adapt=1 / b_bias=0 / direct=1 / weightb=1 / open_gop=0 / weightp=2 / keyint=96 / keyint_min=96 / scenecut=40 / intra_refresh=0 / rc_lookahead=40 / rc=2pass / mbtree=1 / bitrate=8250 / ratetol=1.0 / qcomp=0.60 / qpmin=0 / qpmax=69 / qpstep=4 / cplxblur=20.0 / qblur=0.5 / vbv_maxrate=12375 / vbv_bufsize=6187 / nal_hrd=vbr / filler=0 / ip_ratio=1.40 / aq=1:1.00<br>
Default : Yes<br>
Forced : No<br>
Color range : Limited<br>
Color primaries : BT.709<br>
Transfer characteristics : BT.709<br>
Matrix coefficients : BT.709<br>
<br>
Audio #1<br>
ID : 2<br>
Format : AC-3<br>
Format/Info : Audio Coding 3<br>
Commercial name : Dolby Digital<br>
Codec ID : A_AC3<br>
Duration : 21 min 39 s<br>
Bit rate mode : Constant<br>
Bit rate : 384 kb/s<br>
Channel(s) : 2 channels<br>
Channel layout : L R<br>
Sampling rate : 48.0 kHz<br>
Frame rate : 31.250 FPS (1536 SPF)<br>
Compression mode : Lossy<br>
Stream size : 59.5 MiB (4%)<br>
Language : English<br>
Service kind : Complete Main<br>
Default : Yes<br>
Forced : No<br>
<br>
Audio #2<br>
ID : 3<br>
Format : AC-3<br>
Format/Info : Audio Coding 3<br>
Commercial name : Dolby Digital<br>
Codec ID : A_AC3<br>
Duration : 21 min 39 s<br>
Bit rate mode : Constant<br>
Bit rate : 384 kb/s<br>
Channel(s) : 2 channels<br>
Channel layout : L R<br>
Sampling rate : 48.0 kHz<br>
Frame rate : 31.250 FPS (1536 SPF)<br>
Compression mode : Lossy<br>
Stream size : 59.5 MiB (4%)<br>
Title : Latin American<br>
Language : Spanish<br>
Service kind : Complete Main<br>
Default : No<br>
Forced : No<br>
<br>
Audio #3<br>
ID : 4<br>
Format : AC-3<br>
Format/Info : Audio Coding 3<br>
Commercial name : Dolby Digital<br>
Codec ID : A_AC3<br>
Duration : 21 min 39 s<br>
Bit rate mode : Constant<br>
Bit rate : 384 kb/s<br>
Channel(s) : 2 channels<br>
Channel layout : L R<br>
Sampling rate : 48.0 kHz<br>
Frame rate : 31.250 FPS (1536 SPF)<br>
Compression mode : Lossy<br>
Stream size : 59.5 MiB (4%)<br>
Title : Brazilian<br>
Language : Portuguese<br>
Service kind : Complete Main<br>
Default : No<br>
Forced : No<br>
<br>
Text<br>
ID : 5<br>
Format : UTF-8<br>
Codec ID : S_TEXT/UTF8<br>
Codec ID/Info : UTF-8 Plain Text<br>
Duration : 21 min 6 s<br>
Bit rate : 61 b/s<br>
Frame rate : 0.254 FPS<br>
Count of elements : 322<br>
Stream size : 9.45 KiB (0%)<br>
Title : SDH<br>
Language : English<br>
Default : No<br>
Forced : No<br>
<br>
<b><span style="text-decoration: underline">Episode 7: Unnatural Alliances</span></b><br>
General<br>
Complete name : Legion.of.Super.Heroes.S02E07.Unnatural.Alliances.1080p.HMAX.WEB-DL.DD2.0.x264-Samuel.mkv<br>
Format : Matroska<br>
Format version : Version 4<br>
File size : 1.44 GiB<br>
Duration : 21 min 57 s<br>
Overall bit rate mode : Variable<br>
Overall bit rate : 9 366 kb/s<br>
Frame rate : 23.976 FPS<br>
Encoded date : 2023-05-14 07:48:16 UTC<br>
Writing application : mkvmerge v72.0.0 ('Minuano (Six-eight)') 64-bit<br>
Writing library : libebml v1.4.4 + libmatroska v1.7.1<br>
<br>
Video<br>
ID : 1<br>
Format : AVC<br>
Format/Info : Advanced Video Codec<br>
Format profile : High@L4<br>
Format settings : CABAC / 4 Ref Frames<br>
Format settings, CABAC : Yes<br>
Format settings, Reference frames : 4 frames<br>
Codec ID : V_MPEG4/ISO/AVC<br>
Duration : 21 min 57 s<br>
Bit rate mode : Variable<br>
Bit rate : 8 250 kb/s<br>
Maximum bit rate : 12.4 Mb/s<br>
Width : 1 920 pixels<br>
Height : 1 080 pixels<br>
Display aspect ratio : 16:9<br>
Frame rate mode : Constant<br>
Frame rate : 23.976 (24000/1001) FPS<br>
Color space : YUV<br>
Chroma subsampling : 4:2:0<br>
Bit depth : 8 bits<br>
Scan type : Progressive<br>
Bits/(Pixel*Frame) : 0.166<br>
Stream size : 1.26 GiB (88%)<br>
Writing library : x264 core 157 r2965 861cec4<br>
Encoding settings : cabac=1 / ref=4 / deblock=1:0:0 / analyse=0x3:0x113 / me=hex / subme=7 / psy=1 / psy_rd=1.00:0.00 / mixed_ref=1 / me_range=16 / chroma_me=1 / trellis=1 / 8x8dct=1 / cqm=0 / deadzone=21,11 / fast_pskip=1 / chroma_qp_offset=-2 / threads=34 / lookahead_threads=5 / sliced_threads=0 / nr=0 / decimate=1 / interlaced=0 / bluray_compat=0 / constrained_intra=0 / bframes=3 / b_pyramid=2 / b_adapt=1 / b_bias=0 / direct=1 / weightb=1 / open_gop=0 / weightp=2 / keyint=96 / keyint_min=96 / scenecut=40 / intra_refresh=0 / rc_lookahead=40 / rc=2pass / mbtree=1 / bitrate=8250 / ratetol=1.0 / qcomp=0.60 / qpmin=0 / qpmax=69 / qpstep=4 / cplxblur=20.0 / qblur=0.5 / vbv_maxrate=12375 / vbv_bufsize=6187 / nal_hrd=vbr / filler=0 / ip_ratio=1.40 / aq=1:1.00<br>
Default : Yes<br>
Forced : No<br>
Color range : Limited<br>
Color primaries : BT.709<br>
Transfer characteristics : BT.709<br>
Matrix coefficients : BT.709<br>
<br>
Audio #1<br>
ID : 2<br>
Format : AC-3<br>
Format/Info : Audio Coding 3<br>
Commercial name : Dolby Digital<br>
Codec ID : A_AC3<br>
Duration : 21 min 57 s<br>
Bit rate mode : Constant<br>
Bit rate : 384 kb/s<br>
Channel(s) : 2 channels<br>
Channel layout : L R<br>
Sampling rate : 48.0 kHz<br>
Frame rate : 31.250 FPS (1536 SPF)<br>
Compression mode : Lossy<br>
Stream size : 60.3 MiB (4%)<br>
Language : English<br>
Service kind : Complete Main<br>
Default : Yes<br>
Forced : No<br>
<br>
Audio #2<br>
ID : 3<br>
Format : AC-3<br>
Format/Info : Audio Coding 3<br>
Commercial name : Dolby Digital<br>
Codec ID : A_AC3<br>
Duration : 21 min 57 s<br>
Bit rate mode : Constant<br>
Bit rate : 384 kb/s<br>
Channel(s) : 2 channels<br>
Channel layout : L R<br>
Sampling rate : 48.0 kHz<br>
Frame rate : 31.250 FPS (1536 SPF)<br>
Compression mode : Lossy<br>
Stream size : 60.3 MiB (4%)<br>
Title : Latin American<br>
Language : Spanish<br>
Service kind : Complete Main<br>
Default : No<br>
Forced : No<br>
<br>
Audio #3<br>
ID : 4<br>
Format : AC-3<br>
Format/Info : Audio Coding 3<br>
Commercial name : Dolby Digital<br>
Codec ID : A_AC3<br>
Duration : 21 min 57 s<br>
Bit rate mode : Constant<br>
Bit rate : 384 kb/s<br>
Channel(s) : 2 channels<br>
Channel layout : L R<br>
Sampling rate : 48.0 kHz<br>
Frame rate : 31.250 FPS (1536 SPF)<br>
Compression mode : Lossy<br>
Stream size : 60.3 MiB (4%)<br>
Title : Brazilian<br>
Language : Portuguese<br>
Service kind : Complete Main<br>
Default : No<br>
Forced : No<br>
<br>
Text<br>
ID : 5<br>
Format : UTF-8<br>
Codec ID : S_TEXT/UTF8<br>
Codec ID/Info : UTF-8 Plain Text<br>
Duration : 21 min 16 s<br>
Bit rate : 61 b/s<br>
Frame rate : 0.306 FPS<br>
Count of elements : 391<br>
Stream size : 9.52 KiB (0%)<br>
Title : SDH<br>
Language : English<br>
Default : No<br>
Forced : No<br>
<br>
<b><span style="text-decoration: underline">Episode 8: Message in a Bottle</span></b><br>
General<br>
Complete name : Legion.of.Super.Heroes.S02E08.Message.in.a.Bottle.1080p.HMAX.WEB-DL.DD2.0.x264-Samuel.mkv<br>
Format : Matroska<br>
Format version : Version 4<br>
File size : 1.45 GiB<br>
Duration : 22 min 14 s<br>
Overall bit rate mode : Variable<br>
Overall bit rate : 9 317 kb/s<br>
Frame rate : 23.976 FPS<br>
Encoded date : 2023-05-23 19:57:48 UTC<br>
Writing application : mkvmerge v72.0.0 ('Minuano (Six-eight)') 64-bit<br>
Writing library : libebml v1.4.4 + libmatroska v1.7.1<br>
<br>
Video<br>
ID : 1<br>
Format : AVC<br>
Format/Info : Advanced Video Codec<br>
Format profile : High@L4<br>
Format settings : CABAC / 4 Ref Frames<br>
Format settings, CABAC : Yes<br>
Format settings, Reference frames : 4 frames<br>
Codec ID : V_MPEG4/ISO/AVC<br>
Duration : 22 min 14 s<br>
Bit rate mode : Variable<br>
Bit rate : 8 250 kb/s<br>
Maximum bit rate : 12.4 Mb/s<br>
Width : 1 920 pixels<br>
Height : 1 080 pixels<br>
Display aspect ratio : 16:9<br>
Frame rate mode : Constant<br>
Frame rate : 23.976 (24000/1001) FPS<br>
Color space : YUV<br>
Chroma subsampling : 4:2:0<br>
Bit depth : 8 bits<br>
Scan type : Progressive<br>
Bits/(Pixel*Frame) : 0.166<br>
Stream size : 1.27 GiB (88%)<br>
Writing library : x264 core 157 r2965 861cec4<br>
Encoding settings : cabac=1 / ref=4 / deblock=1:0:0 / analyse=0x3:0x113 / me=hex / subme=7 / psy=1 / psy_rd=1.00:0.00 / mixed_ref=1 / me_range=16 / chroma_me=1 / trellis=1 / 8x8dct=1 / cqm=0 / deadzone=21,11 / fast_pskip=1 / chroma_qp_offset=-2 / threads=34 / lookahead_threads=5 / sliced_threads=0 / nr=0 / decimate=1 / interlaced=0 / bluray_compat=0 / constrained_intra=0 / bframes=3 / b_pyramid=2 / b_adapt=1 / b_bias=0 / direct=1 / weightb=1 / open_gop=0 / weightp=2 / keyint=96 / keyint_min=96 / scenecut=40 / intra_refresh=0 / rc_lookahead=40 / rc=2pass / mbtree=1 / bitrate=8250 / ratetol=1.0 / qcomp=0.60 / qpmin=0 / qpmax=69 / qpstep=4 / cplxblur=20.0 / qblur=0.5 / vbv_maxrate=12375 / vbv_bufsize=6187 / nal_hrd=vbr / filler=0 / ip_ratio=1.40 / aq=1:1.00<br>
Default : Yes<br>
Forced : No<br>
Color range : Limited<br>
Color primaries : BT.709<br>
Transfer characteristics : BT.709<br>
Matrix coefficients : BT.709<br>
<br>
Audio #1<br>
ID : 2<br>
Format : AC-3<br>
Format/Info : Audio Coding 3<br>
Commercial name : Dolby Digital<br>
Codec ID : A_AC3<br>
Duration : 22 min 14 s<br>
Bit rate mode : Constant<br>
Bit rate : 384 kb/s<br>
Channel(s) : 2 channels<br>
Channel layout : L R<br>
Sampling rate : 48.0 kHz<br>
Frame rate : 31.250 FPS (1536 SPF)<br>
Compression mode : Lossy<br>
Stream size : 61.1 MiB (4%)<br>
Language : English<br>
Service kind : Complete Main<br>
Default : Yes<br>
Forced : No<br>
<br>
Audio #2<br>
ID : 3<br>
Format : AC-3<br>
Format/Info : Audio Coding 3<br>
Commercial name : Dolby Digital<br>
Codec ID : A_AC3<br>
Duration : 22 min 14 s<br>
Bit rate mode : Constant<br>
Bit rate : 384 kb/s<br>
Channel(s) : 2 channels<br>
Channel layout : L R<br>
Sampling rate : 48.0 kHz<br>
Frame rate : 31.250 FPS (1536 SPF)<br>
Compression mode : Lossy<br>
Stream size : 61.1 MiB (4%)<br>
Title : Latin American<br>
Language : Spanish<br>
Service kind : Complete Main<br>
Default : No<br>
Forced : No<br>
<br>
Audio #3<br>
ID : 4<br>
Format : AC-3<br>
Format/Info : Audio Coding 3<br>
Commercial name : Dolby Digital<br>
Codec ID : A_AC3<br>
Duration : 22 min 14 s<br>
Bit rate mode : Constant<br>
Bit rate : 384 kb/s<br>
Channel(s) : 2 channels<br>
Channel layout : L R<br>
Sampling rate : 48.0 kHz<br>
Frame rate : 31.250 FPS (1536 SPF)<br>
Compression mode : Lossy<br>
Stream size : 61.1 MiB (4%)<br>
Title : Brazilian<br>
Language : Portuguese<br>
Service kind : Complete Main<br>
Default : No<br>
Forced : No<br>
<br>
Text<br>
ID : 5<br>
Format : UTF-8<br>
Codec ID : S_TEXT/UTF8<br>
Codec ID/Info : UTF-8 Plain Text<br>
Duration : 21 min 41 s<br>
Bit rate : 69 b/s<br>
Frame rate : 0.300 FPS<br>
Count of elements : 390<br>
Stream size : 11.1 KiB (0%)<br>
Title : SDH<br>
Language : English<br>
Default : No<br>
Forced : No<br>
<br>
<b><span style="text-decoration: underline">Episode 9: In the Beginning</span></b><br>
General<br>
Complete name : Legion.of.Super.Heroes.S02E09.In.the.Beginning.1080p.HMAX.WEB-DL.DD2.0.x264-Samuel.mkv<br>
Format : Matroska<br>
Format version : Version 4<br>
File size : 1.40 GiB<br>
Duration : 21 min 20 s<br>
Overall bit rate mode : Variable<br>
Overall bit rate : 9 364 kb/s<br>
Frame rate : 23.976 FPS<br>
Encoded date : 2023-05-23 19:59:55 UTC<br>
Writing application : mkvmerge v72.0.0 ('Minuano (Six-eight)') 64-bit<br>
Writing library : libebml v1.4.4 + libmatroska v1.7.1<br>
<br>
Video<br>
ID : 1<br>
Format : AVC<br>
Format/Info : Advanced Video Codec<br>
Format profile : High@L4<br>
Format settings : CABAC / 4 Ref Frames<br>
Format settings, CABAC : Yes<br>
Format settings, Reference frames : 4 frames<br>
Codec ID : V_MPEG4/ISO/AVC<br>
Duration : 21 min 20 s<br>
Bit rate mode : Variable<br>
Bit rate : 8 250 kb/s<br>
Maximum bit rate : 12.4 Mb/s<br>
Width : 1 920 pixels<br>
Height : 1 080 pixels<br>
Display aspect ratio : 16:9<br>
Frame rate mode : Constant<br>
Frame rate : 23.976 (24000/1001) FPS<br>
Color space : YUV<br>
Chroma subsampling : 4:2:0<br>
Bit depth : 8 bits<br>
Scan type : Progressive<br>
Bits/(Pixel*Frame) : 0.166<br>
Stream size : 1.22 GiB (88%)<br>
Writing library : x264 core 157 r2965 861cec4<br>
Encoding settings : cabac=1 / ref=4 / deblock=1:0:0 / analyse=0x3:0x113 / me=hex / subme=7 / psy=1 / psy_rd=1.00:0.00 / mixed_ref=1 / me_range=16 / chroma_me=1 / trellis=1 / 8x8dct=1 / cqm=0 / deadzone=21,11 / fast_pskip=1 / chroma_qp_offset=-2 / threads=34 / lookahead_threads=5 / sliced_threads=0 / nr=0 / decimate=1 / interlaced=0 / bluray_compat=0 / constrained_intra=0 / bframes=3 / b_pyramid=2 / b_adapt=1 / b_bias=0 / direct=1 / weightb=1 / open_gop=0 / weightp=2 / keyint=96 / keyint_min=96 / scenecut=40 / intra_refresh=0 / rc_lookahead=40 / rc=2pass / mbtree=1 / bitrate=8250 / ratetol=1.0 / qcomp=0.60 / qpmin=0 / qpmax=69 / qpstep=4 / cplxblur=20.0 / qblur=0.5 / vbv_maxrate=12375 / vbv_bufsize=6187 / nal_hrd=vbr / filler=0 / ip_ratio=1.40 / aq=1:1.00<br>
Default : Yes<br>
Forced : No<br>
Color range : Limited<br>
Color primaries : BT.709<br>
Transfer characteristics : BT.709<br>
Matrix coefficients : BT.709<br>
<br>
Audio #1<br>
ID : 2<br>
Format : AC-3<br>
Format/Info : Audio Coding 3<br>
Commercial name : Dolby Digital<br>
Codec ID : A_AC3<br>
Duration : 21 min 20 s<br>
Bit rate mode : Constant<br>
Bit rate : 384 kb/s<br>
Channel(s) : 2 channels<br>
Channel layout : L R<br>
Sampling rate : 48.0 kHz<br>
Frame rate : 31.250 FPS (1536 SPF)<br>
Compression mode : Lossy<br>
Stream size : 58.6 MiB (4%)<br>
Language : English<br>
Service kind : Complete Main<br>
Default : Yes<br>
Forced : No<br>
<br>
Audio #2<br>
ID : 3<br>
Format : AC-3<br>
Format/Info : Audio Coding 3<br>
Commercial name : Dolby Digital<br>
Codec ID : A_AC3<br>
Duration : 21 min 20 s<br>
Bit rate mode : Constant<br>
Bit rate : 384 kb/s<br>
Channel(s) : 2 channels<br>
Channel layout : L R<br>
Sampling rate : 48.0 kHz<br>
Frame rate : 31.250 FPS (1536 SPF)<br>
Compression mode : Lossy<br>
Stream size : 58.6 MiB (4%)<br>
Title : Latin American<br>
Language : Spanish<br>
Service kind : Complete Main<br>
Default : No<br>
Forced : No<br>
<br>
Audio #3<br>
ID : 4<br>
Format : AC-3<br>
Format/Info : Audio Coding 3<br>
Commercial name : Dolby Digital<br>
Codec ID : A_AC3<br>
Duration : 21 min 20 s<br>
Bit rate mode : Constant<br>
Bit rate : 384 kb/s<br>
Channel(s) : 2 channels<br>
Channel layout : L R<br>
Sampling rate : 48.0 kHz<br>
Frame rate : 31.250 FPS (1536 SPF)<br>
Compression mode : Lossy<br>
Stream size : 58.6 MiB (4%)<br>
Title : Brazilian<br>
Language : Portuguese<br>
Service kind : Complete Main<br>
Default : No<br>
Forced : No<br>
<br>
Text<br>
ID : 5<br>
Format : UTF-8<br>
Codec ID : S_TEXT/UTF8<br>
Codec ID/Info : UTF-8 Plain Text<br>
Duration : 20 min 46 s<br>
Bit rate : 66 b/s<br>
Frame rate : 0.303 FPS<br>
Count of elements : 378<br>
Stream size : 10.0 KiB (0%)<br>
Title : SDH<br>
Language : English<br>
Default : No<br>
Forced : No<br>
<br>
<b><span style="text-decoration: underline">Episode 10: Trials</span></b><br>
General<br>
Complete name : Legion.of.Super.Heroes.S02E10.Trials.1080p.HMAX.WEB-DL.DD2.0.x264-Samuel.mkv<br>
Format : Matroska<br>
Format version : Version 4<br>
File size : 1.41 GiB<br>
Duration : 21 min 36 s<br>
Overall bit rate mode : Variable<br>
Overall bit rate : 9 371 kb/s<br>
Frame rate : 23.976 FPS<br>
Encoded date : 2023-05-23 20:01:54 UTC<br>
Writing application : mkvmerge v72.0.0 ('Minuano (Six-eight)') 64-bit<br>
Writing library : libebml v1.4.4 + libmatroska v1.7.1<br>
<br>
Video<br>
ID : 1<br>
Format : AVC<br>
Format/Info : Advanced Video Codec<br>
Format profile : High@L4<br>
Format settings : CABAC / 4 Ref Frames<br>
Format settings, CABAC : Yes<br>
Format settings, Reference frames : 4 frames<br>
Codec ID : V_MPEG4/ISO/AVC<br>
Duration : 21 min 36 s<br>
Bit rate mode : Variable<br>
Bit rate : 8 250 kb/s<br>
Maximum bit rate : 12.4 Mb/s<br>
Width : 1 920 pixels<br>
Height : 1 080 pixels<br>
Display aspect ratio : 16:9<br>
Frame rate mode : Constant<br>
Frame rate : 23.976 (24000/1001) FPS<br>
Color space : YUV<br>
Chroma subsampling : 4:2:0<br>
Bit depth : 8 bits<br>
Scan type : Progressive<br>
Bits/(Pixel*Frame) : 0.166<br>
Stream size : 1.24 GiB (88%)<br>
Writing library : x264 core 157 r2965 861cec4<br>
Encoding settings : cabac=1 / ref=4 / deblock=1:0:0 / analyse=0x3:0x113 / me=hex / subme=7 / psy=1 / psy_rd=1.00:0.00 / mixed_ref=1 / me_range=16 / chroma_me=1 / trellis=1 / 8x8dct=1 / cqm=0 / deadzone=21,11 / fast_pskip=1 / chroma_qp_offset=-2 / threads=34 / lookahead_threads=5 / sliced_threads=0 / nr=0 / decimate=1 / interlaced=0 / bluray_compat=0 / constrained_intra=0 / bframes=3 / b_pyramid=2 / b_adapt=1 / b_bias=0 / direct=1 / weightb=1 / open_gop=0 / weightp=2 / keyint=96 / keyint_min=96 / scenecut=40 / intra_refresh=0 / rc_lookahead=40 / rc=2pass / mbtree=1 / bitrate=8250 / ratetol=1.0 / qcomp=0.60 / qpmin=0 / qpmax=69 / qpstep=4 / cplxblur=20.0 / qblur=0.5 / vbv_maxrate=12375 / vbv_bufsize=6187 / nal_hrd=vbr / filler=0 / ip_ratio=1.40 / aq=1:1.00<br>
Default : Yes<br>
Forced : No<br>
Color range : Limited<br>
Color primaries : BT.709<br>
Transfer characteristics : BT.709<br>
Matrix coefficients : BT.709<br>
<br>
Audio #1<br>
ID : 2<br>
Format : AC-3<br>
Format/Info : Audio Coding 3<br>
Commercial name : Dolby Digital<br>
Codec ID : A_AC3<br>
Duration : 21 min 36 s<br>
Bit rate mode : Constant<br>
Bit rate : 384 kb/s<br>
Channel(s) : 2 channels<br>
Channel layout : L R<br>
Sampling rate : 48.0 kHz<br>
Frame rate : 31.250 FPS (1536 SPF)<br>
Compression mode : Lossy<br>
Stream size : 59.3 MiB (4%)<br>
Language : English<br>
Service kind : Complete Main<br>
Default : Yes<br>
Forced : No<br>
<br>
Audio #2<br>
ID : 3<br>
Format : AC-3<br>
Format/Info : Audio Coding 3<br>
Commercial name : Dolby Digital<br>
Codec ID : A_AC3<br>
Duration : 21 min 36 s<br>
Bit rate mode : Constant<br>
Bit rate : 384 kb/s<br>
Channel(s) : 2 channels<br>
Channel layout : L R<br>
Sampling rate : 48.0 kHz<br>
Frame rate : 31.250 FPS (1536 SPF)<br>
Compression mode : Lossy<br>
Stream size : 59.3 MiB (4%)<br>
Title : Latin American<br>
Language : Spanish<br>
Service kind : Complete Main<br>
Default : No<br>
Forced : No<br>
<br>
Audio #3<br>
ID : 4<br>
Format : AC-3<br>
Format/Info : Audio Coding 3<br>
Commercial name : Dolby Digital<br>
Codec ID : A_AC3<br>
Duration : 21 min 36 s<br>
Bit rate mode : Constant<br>
Bit rate : 384 kb/s<br>
Channel(s) : 2 channels<br>
Channel layout : L R<br>
Sampling rate : 48.0 kHz<br>
Frame rate : 31.250 FPS (1536 SPF)<br>
Compression mode : Lossy<br>
Stream size : 59.3 MiB (4%)<br>
Title : Brazilian<br>
Language : Portuguese<br>
Service kind : Complete Main<br>
Default : No<br>
Forced : No<br>
<br>
Text<br>
ID : 5<br>
Format : UTF-8<br>
Codec ID : S_TEXT/UTF8<br>
Codec ID/Info : UTF-8 Plain Text<br>
Duration : 20 min 58 s<br>
Bit rate : 57 b/s<br>
Frame rate : 0.319 FPS<br>
Count of elements : 402<br>
Stream size : 8.79 KiB (0%)<br>
Title : SDH<br>
Language : English<br>
Default : No<br>
Forced : No<br>
<br>
<b><span style="text-decoration: underline">Episode 11: In Your Dreams</span></b><br>
General<br>
Complete name : Legion.of.Super.Heroes.S02E11.In.Your.Dreams.1080p.HMAX.WEB-DL.DD2.0.x264-Samuel.mkv<br>
Format : Matroska<br>
Format version : Version 4<br>
File size : 1.40 GiB<br>
Duration : 21 min 24 s<br>
Overall bit rate mode : Variable<br>
Overall bit rate : 9 354 kb/s<br>
Frame rate : 23.976 FPS<br>
Encoded date : 2023-05-23 20:03:51 UTC<br>
Writing application : mkvmerge v72.0.0 ('Minuano (Six-eight)') 64-bit<br>
Writing library : libebml v1.4.4 + libmatroska v1.7.1<br>
<br>
Video<br>
ID : 1<br>
Format : AVC<br>
Format/Info : Advanced Video Codec<br>
Format profile : High@L4<br>
Format settings : CABAC / 4 Ref Frames<br>
Format settings, CABAC : Yes<br>
Format settings, Reference frames : 4 frames<br>
Codec ID : V_MPEG4/ISO/AVC<br>
Duration : 21 min 24 s<br>
Bit rate mode : Variable<br>
Bit rate : 8 250 kb/s<br>
Maximum bit rate : 12.4 Mb/s<br>
Width : 1 920 pixels<br>
Height : 1 080 pixels<br>
Display aspect ratio : 16:9<br>
Frame rate mode : Constant<br>
Frame rate : 23.976 (24000/1001) FPS<br>
Color space : YUV<br>
Chroma subsampling : 4:2:0<br>
Bit depth : 8 bits<br>
Scan type : Progressive<br>
Bits/(Pixel*Frame) : 0.166<br>
Stream size : 1.23 GiB (88%)<br>
Writing library : x264 core 157 r2965 861cec4<br>
Encoding settings : cabac=1 / ref=4 / deblock=1:0:0 / analyse=0x3:0x113 / me=hex / subme=7 / psy=1 / psy_rd=1.00:0.00 / mixed_ref=1 / me_range=16 / chroma_me=1 / trellis=1 / 8x8dct=1 / cqm=0 / deadzone=21,11 / fast_pskip=1 / chroma_qp_offset=-2 / threads=34 / lookahead_threads=5 / sliced_threads=0 / nr=0 / decimate=1 / interlaced=0 / bluray_compat=0 / constrained_intra=0 / bframes=3 / b_pyramid=2 / b_adapt=1 / b_bias=0 / direct=1 / weightb=1 / open_gop=0 / weightp=2 / keyint=96 / keyint_min=96 / scenecut=40 / intra_refresh=0 / rc_lookahead=40 / rc=2pass / mbtree=1 / bitrate=8250 / ratetol=1.0 / qcomp=0.60 / qpmin=0 / qpmax=69 / qpstep=4 / cplxblur=20.0 / qblur=0.5 / vbv_maxrate=12375 / vbv_bufsize=6187 / nal_hrd=vbr / filler=0 / ip_ratio=1.40 / aq=1:1.00<br>
Default : Yes<br>
Forced : No<br>
Color range : Limited<br>
Color primaries : BT.709<br>
Transfer characteristics : BT.709<br>
Matrix coefficients : BT.709<br>
<br>
Audio #1<br>
ID : 2<br>
Format : AC-3<br>
Format/Info : Audio Coding 3<br>
Commercial name : Dolby Digital<br>
Codec ID : A_AC3<br>
Duration : 21 min 24 s<br>
Bit rate mode : Constant<br>
Bit rate : 384 kb/s<br>
Channel(s) : 2 channels<br>
Channel layout : L R<br>
Sampling rate : 48.0 kHz<br>
Frame rate : 31.250 FPS (1536 SPF)<br>
Compression mode : Lossy<br>
Stream size : 58.8 MiB (4%)<br>
Language : English<br>
Service kind : Complete Main<br>
Default : Yes<br>
Forced : No<br>
<br>
Audio #2<br>
ID : 3<br>
Format : AC-3<br>
Format/Info : Audio Coding 3<br>
Commercial name : Dolby Digital<br>
Codec ID : A_AC3<br>
Duration : 21 min 24 s<br>
Bit rate mode : Constant<br>
Bit rate : 384 kb/s<br>
Channel(s) : 2 channels<br>
Channel layout : L R<br>
Sampling rate : 48.0 kHz<br>
Frame rate : 31.250 FPS (1536 SPF)<br>
Compression mode : Lossy<br>
Stream size : 58.8 MiB (4%)<br>
Title : Latin American<br>
Language : Spanish<br>
Service kind : Complete Main<br>
Default : No<br>
Forced : No<br>
<br>
Audio #3<br>
ID : 4<br>
Format : AC-3<br>
Format/Info : Audio Coding 3<br>
Commercial name : Dolby Digital<br>
Codec ID : A_AC3<br>
Duration : 21 min 24 s<br>
Bit rate mode : Constant<br>
Bit rate : 384 kb/s<br>
Channel(s) : 2 channels<br>
Channel layout : L R<br>
Sampling rate : 48.0 kHz<br>
Frame rate : 31.250 FPS (1536 SPF)<br>
Compression mode : Lossy<br>
Stream size : 58.8 MiB (4%)<br>
Title : Brazilian<br>
Language : Portuguese<br>
Service kind : Complete Main<br>
Default : No<br>
Forced : No<br>
<br>
Text<br>
ID : 5<br>
Format : UTF-8<br>
Codec ID : S_TEXT/UTF8<br>
Codec ID/Info : UTF-8 Plain Text<br>
Duration : 21 min 12 s<br>
Bit rate : 62 b/s<br>
Frame rate : 0.285 FPS<br>
Count of elements : 363<br>
Stream size : 9.69 KiB (0%)<br>
Title : SDH<br>
Language : English<br>
Default : No<br>
Forced : No<br>
<br>
<b><span style="text-decoration: underline">Episode 12: Dark Victory - Part I</span></b><br>
General<br>
Complete name : Legion.of.Super.Heroes.S02E12.Dark.Victory.Part.I.1080p.HMAX.WEB-DL.DD2.0.x264-Samuel.mkv<br>
Format : Matroska<br>
Format version : Version 4<br>
File size : 1.49 GiB<br>
Duration : 22 min 47 s<br>
Overall bit rate mode : Variable<br>
Overall bit rate : 9 349 kb/s<br>
Frame rate : 23.976 FPS<br>
Encoded date : 2023-05-23 20:05:59 UTC<br>
Writing application : mkvmerge v72.0.0 ('Minuano (Six-eight)') 64-bit<br>
Writing library : libebml v1.4.4 + libmatroska v1.7.1<br>
<br>
Video<br>
ID : 1<br>
Format : AVC<br>
Format/Info : Advanced Video Codec<br>
Format profile : High@L4<br>
Format settings : CABAC / 4 Ref Frames<br>
Format settings, CABAC : Yes<br>
Format settings, Reference frames : 4 frames<br>
Codec ID : V_MPEG4/ISO/AVC<br>
Duration : 22 min 47 s<br>
Bit rate mode : Variable<br>
Bit rate : 8 250 kb/s<br>
Maximum bit rate : 12.4 Mb/s<br>
Width : 1 920 pixels<br>
Height : 1 080 pixels<br>
Display aspect ratio : 16:9<br>
Frame rate mode : Constant<br>
Frame rate : 23.976 (24000/1001) FPS<br>
Color space : YUV<br>
Chroma subsampling : 4:2:0<br>
Bit depth : 8 bits<br>
Scan type : Progressive<br>
Bits/(Pixel*Frame) : 0.166<br>
Stream size : 1.30 GiB (88%)<br>
Writing library : x264 core 157 r2965 861cec4<br>
Encoding settings : cabac=1 / ref=4 / deblock=1:0:0 / analyse=0x3:0x113 / me=hex / subme=7 / psy=1 / psy_rd=1.00:0.00 / mixed_ref=1 / me_range=16 / chroma_me=1 / trellis=1 / 8x8dct=1 / cqm=0 / deadzone=21,11 / fast_pskip=1 / chroma_qp_offset=-2 / threads=34 / lookahead_threads=5 / sliced_threads=0 / nr=0 / decimate=1 / interlaced=0 / bluray_compat=0 / constrained_intra=0 / bframes=3 / b_pyramid=2 / b_adapt=1 / b_bias=0 / direct=1 / weightb=1 / open_gop=0 / weightp=2 / keyint=96 / keyint_min=96 / scenecut=40 / intra_refresh=0 / rc_lookahead=40 / rc=2pass / mbtree=1 / bitrate=8250 / ratetol=1.0 / qcomp=0.60 / qpmin=0 / qpmax=69 / qpstep=4 / cplxblur=20.0 / qblur=0.5 / vbv_maxrate=12375 / vbv_bufsize=6187 / nal_hrd=vbr / filler=0 / ip_ratio=1.40 / aq=1:1.00<br>
Default : Yes<br>
Forced : No<br>
Color range : Limited<br>
Color primaries : BT.709<br>
Transfer characteristics : BT.709<br>
Matrix coefficients : BT.709<br>
<br>
Audio #1<br>
ID : 2<br>
Format : AC-3<br>
Format/Info : Audio Coding 3<br>
Commercial name : Dolby Digital<br>
Codec ID : A_AC3<br>
Duration : 22 min 47 s<br>
Bit rate mode : Constant<br>
Bit rate : 384 kb/s<br>
Channel(s) : 2 channels<br>
Channel layout : L R<br>
Sampling rate : 48.0 kHz<br>
Frame rate : 31.250 FPS (1536 SPF)<br>
Compression mode : Lossy<br>
Stream size : 62.6 MiB (4%)<br>
Language : English<br>
Service kind : Complete Main<br>
Default : Yes<br>
Forced : No<br>
<br>
Audio #2<br>
ID : 3<br>
Format : AC-3<br>
Format/Info : Audio Coding 3<br>
Commercial name : Dolby Digital<br>
Codec ID : A_AC3<br>
Duration : 22 min 47 s<br>
Bit rate mode : Constant<br>
Bit rate : 384 kb/s<br>
Channel(s) : 2 channels<br>
Channel layout : L R<br>
Sampling rate : 48.0 kHz<br>
Frame rate : 31.250 FPS (1536 SPF)<br>
Compression mode : Lossy<br>
Stream size : 62.6 MiB (4%)<br>
Title : Latin American<br>
Language : Spanish<br>
Service kind : Complete Main<br>
Default : No<br>
Forced : No<br>
<br>
Audio #3<br>
ID : 4<br>
Format : AC-3<br>
Format/Info : Audio Coding 3<br>
Commercial name : Dolby Digital<br>
Codec ID : A_AC3<br>
Duration : 22 min 47 s<br>
Bit rate mode : Constant<br>
Bit rate : 384 kb/s<br>
Channel(s) : 2 channels<br>
Channel layout : L R<br>
Sampling rate : 48.0 kHz<br>
Frame rate : 31.250 FPS (1536 SPF)<br>
Compression mode : Lossy<br>
Stream size : 62.6 MiB (4%)<br>
Title : Brazilian<br>
Language : Portuguese<br>
Service kind : Complete Main<br>
Default : No<br>
Forced : No<br>
<br>
Text<br>
ID : 5<br>
Format : UTF-8<br>
Codec ID : S_TEXT/UTF8<br>
Codec ID/Info : UTF-8 Plain Text<br>
Duration : 22 min 14 s<br>
Bit rate : 66 b/s<br>
Frame rate : 0.306 FPS<br>
Count of elements : 409<br>
Stream size : 10.8 KiB (0%)<br>
Title : SDH<br>
Language : English<br>
Default : No<br>
Forced : No<br>
<br>
<b><span style="text-decoration: underline">Episode 13: Dark Victory - Part II</span></b><br>
General<br>
Complete name : Legion.of.Super.Heroes.S02E13.Dark.Victory.Part.II.1080p.HMAX.WEB-DL.DD2.0.x264-Samuel.mkv<br>
Format : Matroska<br>
Format version : Version 4<br>
File size : 1.48 GiB<br>
Duration : 22 min 43 s<br>
Overall bit rate mode : Variable<br>
Overall bit rate : 9 325 kb/s<br>
Frame rate : 23.976 FPS<br>
Encoded date : 2023-05-23 20:08:07 UTC<br>
Writing application : mkvmerge v72.0.0 ('Minuano (Six-eight)') 64-bit<br>
Writing library : libebml v1.4.4 + libmatroska v1.7.1<br>
<br>
Video<br>
ID : 1<br>
Format : AVC<br>
Format/Info : Advanced Video Codec<br>
Format profile : High@L4<br>
Format settings : CABAC / 4 Ref Frames<br>
Format settings, CABAC : Yes<br>
Format settings, Reference frames : 4 frames<br>
Codec ID : V_MPEG4/ISO/AVC<br>
Duration : 22 min 43 s<br>
Bit rate mode : Variable<br>
Bit rate : 8 250 kb/s<br>
Maximum bit rate : 12.4 Mb/s<br>
Width : 1 920 pixels<br>
Height : 1 080 pixels<br>
Display aspect ratio : 16:9<br>
Frame rate mode : Constant<br>
Frame rate : 23.976 (24000/1001) FPS<br>
Color space : YUV<br>
Chroma subsampling : 4:2:0<br>
Bit depth : 8 bits<br>
Scan type : Progressive<br>
Bits/(Pixel*Frame) : 0.166<br>
Stream size : 1.30 GiB (88%)<br>
Writing library : x264 core 157 r2965 861cec4<br>
Encoding settings : cabac=1 / ref=4 / deblock=1:0:0 / analyse=0x3:0x113 / me=hex / subme=7 / psy=1 / psy_rd=1.00:0.00 / mixed_ref=1 / me_range=16 / chroma_me=1 / trellis=1 / 8x8dct=1 / cqm=0 / deadzone=21,11 / fast_pskip=1 / chroma_qp_offset=-2 / threads=34 / lookahead_threads=5 / sliced_threads=0 / nr=0 / decimate=1 / interlaced=0 / bluray_compat=0 / constrained_intra=0 / bframes=3 / b_pyramid=2 / b_adapt=1 / b_bias=0 / direct=1 / weightb=1 / open_gop=0 / weightp=2 / keyint=96 / keyint_min=96 / scenecut=40 / intra_refresh=0 / rc_lookahead=40 / rc=2pass / mbtree=1 / bitrate=8250 / ratetol=1.0 / qcomp=0.60 / qpmin=0 / qpmax=69 / qpstep=4 / cplxblur=20.0 / qblur=0.5 / vbv_maxrate=12375 / vbv_bufsize=6187 / nal_hrd=vbr / filler=0 / ip_ratio=1.40 / aq=1:1.00<br>
Default : Yes<br>
Forced : No<br>
Color range : Limited<br>
Color primaries : BT.709<br>
Transfer characteristics : BT.709<br>
Matrix coefficients : BT.709<br>
<br>
Audio #1<br>
ID : 2<br>
Format : AC-3<br>
Format/Info : Audio Coding 3<br>
Commercial name : Dolby Digital<br>
Codec ID : A_AC3<br>
Duration : 22 min 43 s<br>
Bit rate mode : Constant<br>
Bit rate : 384 kb/s<br>
Channel(s) : 2 channels<br>
Channel layout : L R<br>
Sampling rate : 48.0 kHz<br>
Frame rate : 31.250 FPS (1536 SPF)<br>
Compression mode : Lossy<br>
Stream size : 62.4 MiB (4%)<br>
Language : English<br>
Service kind : Complete Main<br>
Default : Yes<br>
Forced : No<br>
<br>
Audio #2<br>
ID : 3<br>
Format : AC-3<br>
Format/Info : Audio Coding 3<br>
Commercial name : Dolby Digital<br>
Codec ID : A_AC3<br>
Duration : 22 min 43 s<br>
Bit rate mode : Constant<br>
Bit rate : 384 kb/s<br>
Channel(s) : 2 channels<br>
Channel layout : L R<br>
Sampling rate : 48.0 kHz<br>
Frame rate : 31.250 FPS (1536 SPF)<br>
Compression mode : Lossy<br>
Stream size : 62.4 MiB (4%)<br>
Title : Latin American<br>
Language : Spanish<br>
Service kind : Complete Main<br>
Default : No<br>
Forced : No<br>
<br>
Audio #3<br>
ID : 4<br>
Format : AC-3<br>
Format/Info : Audio Coding 3<br>
Commercial name : Dolby Digital<br>
Codec ID : A_AC3<br>
Duration : 22 min 43 s<br>
Bit rate mode : Constant<br>
Bit rate : 384 kb/s<br>
Channel(s) : 2 channels<br>
Channel layout : L R<br>
Sampling rate : 48.0 kHz<br>
Frame rate : 31.250 FPS (1536 SPF)<br>
Compression mode : Lossy<br>
Stream size : 62.4 MiB (4%)<br>
Title : Brazilian<br>
Language : Portuguese<br>
Service kind : Complete Main<br>
Default : No<br>
Forced : No<br>
<br>
Text<br>
ID : 5<br>
Format : UTF-8<br>
Codec ID : S_TEXT/UTF8<br>
Codec ID/Info : UTF-8 Plain Text<br>
Duration : 22 min 31 s<br>
Bit rate : 49 b/s<br>
Frame rate : 0.226 FPS<br>
Count of elements : 306<br>
Stream size : 8.20 KiB (0%)<br>
Title : SDH<br>
Language : English<br>
Default : No<br>
Forced : No</div>
</div><br>
<b>Screenshots</b><br>
<img src="https://i.imgur.com/PNHTKJe.png" class="bbCodeImage LbImage" alt="[​IMG]" data-url="https://i.imgur.com/PNHTKJe.png" style=""><br>
<a href="https://imgur.com/a/KFpaoSg" target="_blank" class="externalLink" rel="nofollow"><b>More Screenshots</b></a><br>
<br>
<b>Download</b><br>
<div class="bbCodeBlock bbCodeVfcHH HiddenContent">
<div class="attribution type">Hidden Content:</div>
<blockquote>You must reply before you can see the hidden data contained here.</blockquote>
</div></div>
<div class="messageTextEndMarker">&nbsp;</div>
</blockquote>
</article>]]></description>
                <author><![CDATA[Samuel]]></author>
                </item>

                
                <item>
                <title><![CDATA[【MTV】MTV EUROPE MADONNA WEEKEND part 1-5 (VHS-Rip)]]></title>
                <link><![CDATA[https://sharemania.us/threads/mtv-europe-madonna-weekend-part-1-5-vhs-rip.222126/]]></link>
                <description><![CDATA[<article>
<blockquote class="messageText SelectQuoteContainer ugc baseHtml">
<div style="text-align: center"><img src="https://i.postimg.cc/SQ94MDBY/MTV-EUROPE-MADONNA-WEEKEND-part-1-VHS-Rip-mp4-thumbs.jpg" class="bbCodeImage LbImage" alt="[​IMG]" data-url="https://i.postimg.cc/SQ94MDBY/MTV-EUROPE-MADONNA-WEEKEND-part-1-VHS-Rip-mp4-thumbs.jpg" style=""> <br>
<div class="bbCodeBlock bbCodeVfcHH HiddenContent">
<div class="attribution type">Hidden Content:</div>
<blockquote>You must either reply or click 'Like' to see the hidden information contained here.</blockquote>
</div><img src="https://i.postimg.cc/J0jWCzN5/MTV-EUROPE-MADONNA-WEEKEND-part-2-VHS-Rip-mp4-thumbs.jpg" class="bbCodeImage LbImage" alt="[​IMG]" data-url="https://i.postimg.cc/J0jWCzN5/MTV-EUROPE-MADONNA-WEEKEND-part-2-VHS-Rip-mp4-thumbs.jpg" style=""> <br>
<div class="bbCodeBlock bbCodeVfcHH HiddenContent">
<div class="attribution type">Hidden Content:</div>
<blockquote>You must either reply or click 'Like' to see the hidden information contained here.</blockquote>
</div><img src="https://i.postimg.cc/13BszXLW/MTV-EUROPE-MADONNA-WEEKEND-part-3-VHS-Rip-mp4-thumbs.jpg" class="bbCodeImage LbImage" alt="[​IMG]" data-url="https://i.postimg.cc/13BszXLW/MTV-EUROPE-MADONNA-WEEKEND-part-3-VHS-Rip-mp4-thumbs.jpg" style=""> <br>
<div class="bbCodeBlock bbCodeVfcHH HiddenContent">
<div class="attribution type">Hidden Content:</div>
<blockquote>You must either reply or click 'Like' to see the hidden information contained here.</blockquote>
</div><img src="https://i.postimg.cc/JhhmHm8R/MTV-EUROPE-MADONNA-WEEKEND-part-4-VHS-Rip-mp4-thumbs.jpg" class="bbCodeImage LbImage" alt="[​IMG]" data-url="https://i.postimg.cc/JhhmHm8R/MTV-EUROPE-MADONNA-WEEKEND-part-4-VHS-Rip-mp4-thumbs.jpg" style=""> <br>
<div class="bbCodeBlock bbCodeVfcHH HiddenContent">
<div class="attribution type">Hidden Content:</div>
<blockquote>You must either reply or click 'Like' to see the hidden information contained here.</blockquote>
</div><img src="https://i.postimg.cc/cHpNznnJ/MTV-EUROPE-MADONNA-WEEKEND-part-5-VHS-Rip-mp4-thumbs.jpg" class="bbCodeImage LbImage" alt="[​IMG]" data-url="https://i.postimg.cc/cHpNznnJ/MTV-EUROPE-MADONNA-WEEKEND-part-5-VHS-Rip-mp4-thumbs.jpg" style=""> <br>
<div class="bbCodeBlock bbCodeVfcHH HiddenContent">
<div class="attribution type">Hidden Content:</div>
<blockquote>You must either reply or click 'Like' to see the hidden information contained here.</blockquote>
</div></div>
<div class="messageTextEndMarker">&nbsp;</div>
</blockquote>
</article>]]></description>
                <author><![CDATA[Fan Made]]></author>
                </item>

                </channel></rss>